M48
METRIC,LZ,000.000
;FILE_FORMAT=3:3
;TYPE=PLATED
;Layer: PTH_Through_Via
;EasyEDA v6.5.20, 2023-01-09 08:49:07
;a67cddfb3fce44daa9051d46cbbcc19f,10
;Gerber Generator version 0.2
;Holesize 1 = 0.305 mm
T01C0.305
;Holesize 2 = 0.306 mm
T02C0.306
%
G05
G90
T01
X005600Y015000
X006905Y015000
X011500Y019000
X015599Y028000
X033700Y028100
X033700Y020300
X012396Y019000
X031750Y007000
X031750Y008750
T02
X001072Y073925
X001072Y068925
X001072Y063925
X001072Y058925
X001072Y053925
X001072Y048925
X001072Y043925
X001072Y038925
X001072Y033925
X001072Y028925
X001072Y023925
X001072Y018925
X001072Y013925
X006072Y088925
X006072Y083925
X006072Y078925
X006072Y073925
X006072Y053925
X006072Y033925
X006072Y028925
X011072Y093925
X011072Y088925
X011072Y083925
X011072Y078925
X011072Y073925
X011072Y053925
X011072Y033925
X011072Y028925
X011072Y023925
X016072Y093925
X016072Y073925
X016072Y053925
X016072Y033925
X021072Y073925
X021072Y053925
X021072Y033925
X021072Y028925
X021072Y023925
X026072Y098925
X026072Y073925
X026072Y053925
X026072Y033925
X026072Y028925
X026072Y023925
X026072Y008925
X031072Y073925
X031072Y053925
X031072Y033925
X031072Y028925
X031072Y023925
X036072Y093925
X036072Y088925
X036072Y083925
X036072Y078925
X036072Y073925
X036072Y053925
X036072Y033925
X036072Y028925
X036072Y023925
X036072Y018925
X036072Y013925
X041072Y088925
X041072Y083925
X041072Y078925
X041072Y073925
X041072Y053925
X041072Y033925
X041072Y028925
X041072Y023925
X041072Y018925
X041072Y013925
X046072Y083925
X046072Y078925
X046072Y073925
X046072Y068925
X046072Y063925
X046072Y058925
X046072Y053925
X046072Y048925
X046072Y043925
X046072Y038925
X046072Y033925
X046072Y028925
X046072Y023925
X046072Y018925
X046072Y013925
M30
