G04 Layer: BottomSilkscreenLayer*
G04 EasyEDA v6.5.20, 2023-01-09 08:49:07*
G04 a67cddfb3fce44daa9051d46cbbcc19f,10*
G04 Gerber Generator version 0.2*
G04 Scale: 100 percent, Rotated: No, Reflected: No *
G04 Dimensions in millimeters *
G04 leading zeros omitted , absolute positions ,4 integer and 5 decimal *
%FSLAX45Y45*%
%MOMM*%

%ADD10C,0.2032*%
%ADD11C,0.1524*%
%ADD12C,0.2030*%
%ADD13C,0.3000*%

%LPD*%
D10*
X3249993Y3200902D02*
G01*
X3249993Y3105447D01*
X3219993Y3200902D02*
G01*
X3219993Y3105447D01*
X3219993Y3200902D02*
G01*
X3188174Y3200902D01*
X3174540Y3196356D01*
X3165447Y3187265D01*
X3160902Y3178175D01*
X3156356Y3164540D01*
X3156356Y3141812D01*
X3160902Y3128175D01*
X3165447Y3119084D01*
X3174540Y3109993D01*
X3188174Y3105447D01*
X3219993Y3105447D01*
X2988175Y3178175D02*
G01*
X2992721Y3187265D01*
X3001812Y3196356D01*
X3010903Y3200902D01*
X3029084Y3200902D01*
X3038175Y3196356D01*
X3047265Y3187265D01*
X3051812Y3178175D01*
X3056356Y3164540D01*
X3056356Y3141812D01*
X3051812Y3128175D01*
X3047265Y3119084D01*
X3038175Y3109993D01*
X3029084Y3105447D01*
X3010903Y3105447D01*
X3001812Y3109993D01*
X2992721Y3119084D01*
X2988175Y3128175D01*
X2903631Y3169084D02*
G01*
X2903631Y3105447D01*
X2903631Y3155447D02*
G01*
X2912722Y3164540D01*
X2921812Y3169084D01*
X2935447Y3169084D01*
X2944540Y3164540D01*
X2953631Y3155447D01*
X2958175Y3141812D01*
X2958175Y3132721D01*
X2953631Y3119084D01*
X2944540Y3109993D01*
X2935447Y3105447D01*
X2921812Y3105447D01*
X2912722Y3109993D01*
X2903631Y3119084D01*
X2873631Y3169084D02*
G01*
X2873631Y3105447D01*
X2873631Y3141812D02*
G01*
X2869084Y3155447D01*
X2859994Y3164540D01*
X2850903Y3169084D01*
X2837266Y3169084D01*
X2752722Y3200902D02*
G01*
X2752722Y3105447D01*
X2752722Y3155447D02*
G01*
X2761813Y3164540D01*
X2770903Y3169084D01*
X2784541Y3169084D01*
X2793631Y3164540D01*
X2802722Y3155447D01*
X2807266Y3141812D01*
X2807266Y3132721D01*
X2802722Y3119084D01*
X2793631Y3109993D01*
X2784541Y3105447D01*
X2770903Y3105447D01*
X2761813Y3109993D01*
X2752722Y3119084D01*
X2652722Y3146356D02*
G01*
X2570904Y3146356D01*
X2470904Y3200902D02*
G01*
X2434541Y3105447D01*
X2398176Y3200902D02*
G01*
X2434541Y3105447D01*
X2368176Y3141812D02*
G01*
X2313632Y3141812D01*
X2313632Y3150903D01*
X2318176Y3159993D01*
X2322723Y3164540D01*
X2331813Y3169084D01*
X2345448Y3169084D01*
X2354541Y3164540D01*
X2363632Y3155447D01*
X2368176Y3141812D01*
X2368176Y3132721D01*
X2363632Y3119084D01*
X2354541Y3109993D01*
X2345448Y3105447D01*
X2331813Y3105447D01*
X2322723Y3109993D01*
X2313632Y3119084D01*
X2283632Y3169084D02*
G01*
X2283632Y3105447D01*
X2283632Y3141812D02*
G01*
X2279086Y3155447D01*
X2269995Y3164540D01*
X2260904Y3169084D01*
X2247267Y3169084D01*
X2167267Y3155447D02*
G01*
X2171814Y3164540D01*
X2185449Y3169084D01*
X2199086Y3169084D01*
X2212723Y3164540D01*
X2217267Y3155447D01*
X2212723Y3146356D01*
X2203632Y3141812D01*
X2180904Y3137265D01*
X2171814Y3132721D01*
X2167267Y3123631D01*
X2167267Y3119084D01*
X2171814Y3109993D01*
X2185449Y3105447D01*
X2199086Y3105447D01*
X2212723Y3109993D01*
X2217267Y3119084D01*
X2137267Y3200902D02*
G01*
X2132723Y3196356D01*
X2128177Y3200902D01*
X2132723Y3205446D01*
X2137267Y3200902D01*
X2132723Y3169084D02*
G01*
X2132723Y3105447D01*
X2075449Y3169084D02*
G01*
X2084542Y3164540D01*
X2093633Y3155447D01*
X2098177Y3141812D01*
X2098177Y3132721D01*
X2093633Y3119084D01*
X2084542Y3109993D01*
X2075449Y3105447D01*
X2061814Y3105447D01*
X2052723Y3109993D01*
X2043633Y3119084D01*
X2039086Y3132721D01*
X2039086Y3141812D01*
X2043633Y3155447D01*
X2052723Y3164540D01*
X2061814Y3169084D01*
X2075449Y3169084D01*
X2009086Y3169084D02*
G01*
X2009086Y3105447D01*
X2009086Y3150903D02*
G01*
X1995449Y3164540D01*
X1986358Y3169084D01*
X1972724Y3169084D01*
X1963633Y3164540D01*
X1959086Y3150903D01*
X1959086Y3105447D01*
X1859086Y3182721D02*
G01*
X1849996Y3187265D01*
X1836359Y3200902D01*
X1836359Y3105447D01*
X1801815Y3128175D02*
G01*
X1806359Y3123631D01*
X1801815Y3119084D01*
X1797268Y3123631D01*
X1801815Y3128175D01*
X1739996Y3200902D02*
G01*
X1753633Y3196356D01*
X1762724Y3182721D01*
X1767268Y3159993D01*
X1767268Y3146356D01*
X1762724Y3123631D01*
X1753633Y3109993D01*
X1739996Y3105447D01*
X1730905Y3105447D01*
X1717268Y3109993D01*
X1708177Y3123631D01*
X1703633Y3146356D01*
X1703633Y3159993D01*
X1708177Y3182721D01*
X1717268Y3196356D01*
X1730905Y3200902D01*
X1739996Y3200902D01*
D11*
X649998Y2565311D02*
G01*
X649998Y2487333D01*
X644918Y2471839D01*
X634504Y2461425D01*
X618756Y2456345D01*
X608342Y2456345D01*
X592848Y2461425D01*
X582434Y2471839D01*
X577354Y2487333D01*
X577354Y2565311D01*
X543064Y2544483D02*
G01*
X532650Y2549817D01*
X516902Y2565311D01*
X516902Y2456345D01*
X1002019Y2329403D02*
G01*
X1007353Y2339817D01*
X1017767Y2350231D01*
X1027927Y2355311D01*
X1048755Y2355311D01*
X1059169Y2350231D01*
X1069583Y2339817D01*
X1074917Y2329403D01*
X1079997Y2313655D01*
X1079997Y2287747D01*
X1074917Y2272253D01*
X1069583Y2261839D01*
X1059169Y2251425D01*
X1048755Y2246345D01*
X1027927Y2246345D01*
X1017767Y2251425D01*
X1007353Y2261839D01*
X1002019Y2272253D01*
X967729Y2334483D02*
G01*
X957315Y2339817D01*
X941821Y2355311D01*
X941821Y2246345D01*
X2532989Y2443769D02*
G01*
X2460254Y2334666D01*
X2460254Y2443769D02*
G01*
X2532989Y2334666D01*
X2425964Y2422987D02*
G01*
X2415573Y2428184D01*
X2399985Y2443769D01*
X2399985Y2334666D01*
D12*
X1802627Y1620847D02*
G01*
X1816343Y1616275D01*
X1825487Y1602813D01*
X1830059Y1579953D01*
X1830059Y1566237D01*
X1825487Y1543631D01*
X1816343Y1529915D01*
X1802627Y1525343D01*
X1793737Y1525343D01*
X1780021Y1529915D01*
X1770877Y1543631D01*
X1766305Y1566237D01*
X1766305Y1579953D01*
X1770877Y1602813D01*
X1780021Y1616275D01*
X1793737Y1620847D01*
X1802627Y1620847D01*
X2030095Y1602813D02*
G01*
X2020950Y1607385D01*
X2007234Y1620847D01*
X2007234Y1525343D01*
X2225370Y1598241D02*
G01*
X2225370Y1602813D01*
X2220798Y1611703D01*
X2216480Y1616275D01*
X2207336Y1620847D01*
X2189048Y1620847D01*
X2179904Y1616275D01*
X2175332Y1611703D01*
X2171014Y1602813D01*
X2171014Y1593669D01*
X2175332Y1584525D01*
X2184476Y1570809D01*
X2229942Y1525343D01*
X2166442Y1525343D01*
X2420899Y1620847D02*
G01*
X2370861Y1620847D01*
X2398293Y1584525D01*
X2384577Y1584525D01*
X2375433Y1579953D01*
X2370861Y1575381D01*
X2366289Y1561919D01*
X2366289Y1552775D01*
X2370861Y1539059D01*
X2380005Y1529915D01*
X2393721Y1525343D01*
X2407183Y1525343D01*
X2420899Y1529915D01*
X2425471Y1534487D01*
X2430043Y1543631D01*
X2584424Y1620847D02*
G01*
X2629890Y1557347D01*
X2561818Y1557347D01*
X2584424Y1620847D02*
G01*
X2584424Y1525343D01*
X2775381Y1620847D02*
G01*
X2820847Y1620847D01*
X2825419Y1579953D01*
X2820847Y1584525D01*
X2807385Y1589097D01*
X2793669Y1589097D01*
X2779953Y1584525D01*
X2770809Y1575381D01*
X2766237Y1561919D01*
X2766237Y1552775D01*
X2770809Y1539059D01*
X2779953Y1529915D01*
X2793669Y1525343D01*
X2807385Y1525343D01*
X2820847Y1529915D01*
X2825419Y1534487D01*
X2829991Y1543631D01*
X2975483Y1607385D02*
G01*
X2980054Y1616275D01*
X2993516Y1620847D01*
X3002661Y1620847D01*
X3016377Y1616275D01*
X3025520Y1602813D01*
X3030093Y1579953D01*
X3030093Y1557347D01*
X3025520Y1539059D01*
X3016377Y1529915D01*
X3002661Y1525343D01*
X2998088Y1525343D01*
X2984627Y1529915D01*
X2975483Y1539059D01*
X2970911Y1552775D01*
X2970911Y1557347D01*
X2975483Y1570809D01*
X2984627Y1579953D01*
X2998088Y1584525D01*
X3002661Y1584525D01*
X3016377Y1579953D01*
X3025520Y1570809D01*
X3030093Y1557347D01*
X3166440Y1620847D02*
G01*
X3211906Y1525343D01*
X3229940Y1620847D02*
G01*
X3166440Y1620847D01*
G36*
X499973Y6999986D02*
G01*
X499973Y5499963D01*
X4499965Y5499963D01*
X4499965Y6999986D01*
G37*
G36*
X499973Y4999990D02*
G01*
X499973Y3500018D01*
X4499965Y3500018D01*
X4499965Y4999990D01*
G37*
D11*
X247378Y2152136D02*
G01*
X247378Y1847855D01*
X752619Y1847855D01*
X752619Y2152136D01*
X247378Y2152136D01*
X909637Y1818876D02*
G01*
X909637Y1959876D01*
X1090358Y1959876D02*
G01*
X1090358Y1818876D01*
X1075118Y1803636D02*
G01*
X924877Y1803636D01*
X909637Y2181115D02*
G01*
X909637Y2040115D01*
X1090358Y2040115D02*
G01*
X1090358Y2181115D01*
X1075118Y2196355D02*
G01*
X924877Y2196355D01*
G75*
G01*
X1090358Y1818876D02*
G02*
X1075118Y1803636I-15240J0D01*
G75*
G01*
X924877Y1803636D02*
G02*
X909638Y1818876I1J15240D01*
G75*
G01*
X1090358Y2181116D02*
G03*
X1075118Y2196356I-15240J0D01*
G75*
G01*
X924877Y2196356D02*
G03*
X909638Y2181116I1J-15240D01*
D13*
G75*
G01
X324510Y2076907D02*
G03X324510Y2076907I-15011J0D01*
G75*
G01
X249860Y2277237D02*
G03X249860Y2277237I-15011J0D01*
M02*
