G04 Layer: BottomLayer*
G04 EasyEDA v6.5.20, 2023-01-09 08:49:07*
G04 a67cddfb3fce44daa9051d46cbbcc19f,10*
G04 Gerber Generator version 0.2*
G04 Scale: 100 percent, Rotated: No, Reflected: No *
G04 Dimensions in millimeters *
G04 leading zeros omitted , absolute positions ,4 integer and 5 decimal *
%FSLAX45Y45*%
%MOMM*%

%AMMACRO1*21,1,$1,$2,0,0,$3*%
%ADD10C,0.2540*%
%ADD11C,0.5000*%
%ADD12O,0.58801X2.0450048*%
%ADD13R,0.7000X4.3000*%
%ADD14R,0.7000X3.2000*%
%ADD15R,1.3500X1.4100*%
%ADD16MACRO1,1.35X1.41X0.0000*%
%ADD17O,0.9999979999999999X1.9999959999999999*%
%ADD18C,0.6096*%
%ADD19C,0.6100*%
%ADD20C,0.0134*%

%LPD*%
G36*
X1846173Y499973D02*
G01*
X1842312Y500786D01*
X1839010Y502970D01*
X1836826Y506272D01*
X1836013Y510133D01*
X1836013Y590956D01*
X1825447Y590956D01*
X1819148Y590245D01*
X1813255Y588213D01*
X1809902Y587603D01*
X1806549Y588213D01*
X1800656Y590245D01*
X1794306Y590956D01*
X1725472Y590956D01*
X1719122Y590245D01*
X1713230Y588213D01*
X1709877Y587603D01*
X1706524Y588213D01*
X1700631Y590245D01*
X1694332Y590956D01*
X1625447Y590956D01*
X1619148Y590245D01*
X1613255Y588213D01*
X1609902Y587603D01*
X1605280Y588619D01*
X1601724Y590753D01*
X1599336Y594156D01*
X1598523Y598220D01*
X1598523Y2754985D01*
X1599285Y2758897D01*
X1601470Y2762199D01*
X1603044Y2763774D01*
X1608683Y2771800D01*
X1612849Y2780741D01*
X1615389Y2790190D01*
X1616252Y2799994D01*
X1615389Y2809798D01*
X1612849Y2819247D01*
X1608683Y2828188D01*
X1603044Y2836214D01*
X1596136Y2843174D01*
X1588058Y2848813D01*
X1579168Y2852928D01*
X1569669Y2855468D01*
X1559915Y2856331D01*
X1550111Y2855468D01*
X1540611Y2852928D01*
X1531721Y2848813D01*
X1523644Y2843174D01*
X1516735Y2836214D01*
X1511096Y2828188D01*
X1506931Y2819247D01*
X1504391Y2809798D01*
X1503527Y2799994D01*
X1504391Y2790190D01*
X1506931Y2780741D01*
X1511096Y2771800D01*
X1516735Y2763774D01*
X1518310Y2762199D01*
X1520494Y2758897D01*
X1521307Y2754985D01*
X1521307Y1033983D01*
X1520545Y1030173D01*
X1518412Y1026921D01*
X1515160Y1024686D01*
X1511350Y1023823D01*
X1507540Y1024483D01*
X1505864Y1025093D01*
X1499362Y1025906D01*
X500532Y1025906D01*
X469900Y1026871D01*
X440283Y1029716D01*
X410870Y1034389D01*
X381812Y1040892D01*
X353212Y1049223D01*
X325170Y1059332D01*
X297840Y1071168D01*
X271322Y1084732D01*
X245719Y1099921D01*
X221081Y1116634D01*
X197561Y1134922D01*
X175260Y1154633D01*
X154178Y1175715D01*
X134518Y1198067D01*
X116281Y1221587D01*
X99568Y1246225D01*
X84429Y1271879D01*
X70916Y1298448D01*
X59080Y1325778D01*
X49022Y1353820D01*
X40741Y1382420D01*
X34290Y1411478D01*
X29616Y1440891D01*
X26822Y1470558D01*
X25908Y1500530D01*
X25908Y7499603D01*
X26924Y7570165D01*
X29870Y7640116D01*
X34848Y7709966D01*
X41757Y7779613D01*
X50647Y7849057D01*
X61518Y7918246D01*
X74320Y7987080D01*
X89103Y8055559D01*
X105765Y8123529D01*
X124409Y8191042D01*
X144881Y8257997D01*
X167284Y8324342D01*
X191566Y8390026D01*
X217678Y8454999D01*
X245617Y8519210D01*
X275336Y8582558D01*
X306882Y8645093D01*
X340156Y8706713D01*
X375158Y8767368D01*
X411886Y8826957D01*
X450291Y8885529D01*
X490321Y8942984D01*
X531926Y8999270D01*
X575157Y9054388D01*
X619912Y9108236D01*
X666191Y9160764D01*
X713892Y9212021D01*
X763066Y9261856D01*
X813612Y9310319D01*
X865530Y9357309D01*
X918768Y9402826D01*
X973226Y9446818D01*
X1028953Y9489236D01*
X1085799Y9530080D01*
X1143812Y9569246D01*
X1202944Y9606838D01*
X1263091Y9642652D01*
X1324203Y9676841D01*
X1386281Y9709200D01*
X1449222Y9739833D01*
X1513078Y9768687D01*
X1577644Y9795713D01*
X1642973Y9820910D01*
X1709013Y9844227D01*
X1775663Y9865664D01*
X1842922Y9885222D01*
X1910638Y9902850D01*
X1978914Y9918547D01*
X2047544Y9932365D01*
X2116582Y9944150D01*
X2185873Y9954056D01*
X2255469Y9961930D01*
X2325217Y9967874D01*
X2395118Y9971836D01*
X2465120Y9973818D01*
X2535174Y9973818D01*
X2605125Y9971836D01*
X2675026Y9967874D01*
X2744825Y9961930D01*
X2814370Y9954006D01*
X2883712Y9944150D01*
X2952699Y9932314D01*
X3021380Y9918496D01*
X3089605Y9902799D01*
X3157372Y9885121D01*
X3224580Y9865563D01*
X3291230Y9844125D01*
X3357270Y9820808D01*
X3422599Y9795611D01*
X3487216Y9768586D01*
X3551021Y9739731D01*
X3613962Y9709099D01*
X3676040Y9676688D01*
X3737152Y9642551D01*
X3797300Y9606686D01*
X3856380Y9569094D01*
X3914394Y9529876D01*
X3971290Y9489033D01*
X4026966Y9446615D01*
X4081475Y9402622D01*
X4134662Y9357106D01*
X4186580Y9310116D01*
X4237126Y9261652D01*
X4286250Y9211818D01*
X4334002Y9160560D01*
X4380280Y9107982D01*
X4424984Y9054134D01*
X4468215Y8999067D01*
X4509871Y8942730D01*
X4549902Y8885275D01*
X4588256Y8826703D01*
X4624984Y8767114D01*
X4659985Y8706459D01*
X4693259Y8644839D01*
X4724755Y8582304D01*
X4754524Y8518956D01*
X4782464Y8454745D01*
X4808524Y8389772D01*
X4832807Y8324088D01*
X4855210Y8257743D01*
X4875682Y8190788D01*
X4894275Y8123275D01*
X4910937Y8055254D01*
X4925720Y7986826D01*
X4938522Y7917942D01*
X4949342Y7848803D01*
X4958232Y7779359D01*
X4965192Y7709662D01*
X4970119Y7639812D01*
X4973066Y7569860D01*
X4974082Y7499756D01*
X4974082Y1500530D01*
X4973116Y1469898D01*
X4970272Y1440281D01*
X4965598Y1410868D01*
X4959096Y1381810D01*
X4950764Y1353210D01*
X4940655Y1325168D01*
X4928819Y1297838D01*
X4915255Y1271320D01*
X4900066Y1245717D01*
X4883353Y1221079D01*
X4865065Y1197559D01*
X4845354Y1175258D01*
X4824272Y1154176D01*
X4801920Y1134516D01*
X4778400Y1116279D01*
X4753762Y1099566D01*
X4728108Y1084427D01*
X4701540Y1070914D01*
X4674209Y1059078D01*
X4646168Y1049020D01*
X4617567Y1040739D01*
X4588510Y1034287D01*
X4559096Y1029614D01*
X4529429Y1026820D01*
X4499457Y1025906D01*
X3530600Y1025906D01*
X3524097Y1025093D01*
X3518560Y1023010D01*
X3513582Y1019606D01*
X3510076Y1016253D01*
X3506774Y1011428D01*
X3504692Y1005890D01*
X3503929Y999693D01*
X3503929Y601116D01*
X3503168Y597255D01*
X3500983Y593953D01*
X3497681Y591769D01*
X3493719Y590956D01*
X3493719Y510133D01*
X3492957Y506272D01*
X3490772Y502970D01*
X3487470Y500786D01*
X3483559Y499973D01*
X3456178Y499973D01*
X3452317Y500786D01*
X3449015Y502970D01*
X3446830Y506272D01*
X3446018Y510133D01*
X3446018Y590956D01*
X3435451Y590956D01*
X3429152Y590245D01*
X3423259Y588213D01*
X3419906Y587603D01*
X3415284Y588619D01*
X3411728Y590753D01*
X3409340Y594156D01*
X3408476Y598220D01*
X3408476Y1329588D01*
X3407714Y1337614D01*
X3405530Y1344879D01*
X3401974Y1351534D01*
X3396843Y1357731D01*
X3238093Y1516481D01*
X3235909Y1519783D01*
X3235147Y1523695D01*
X3235147Y1650238D01*
X3235655Y1653489D01*
X3237179Y1656384D01*
X3239566Y1658620D01*
X3243834Y1661515D01*
X3252114Y1669237D01*
X3259175Y1678127D01*
X3264865Y1687931D01*
X3269030Y1698498D01*
X3271520Y1709521D01*
X3272434Y1721256D01*
X3272434Y1820468D01*
X3271520Y1832152D01*
X3269030Y1843227D01*
X3264865Y1853793D01*
X3259175Y1863598D01*
X3252114Y1872488D01*
X3243834Y1880158D01*
X3239566Y1883105D01*
X3237179Y1885340D01*
X3235655Y1888236D01*
X3235096Y1891487D01*
X3235096Y2050237D01*
X3235655Y2053437D01*
X3237179Y2056384D01*
X3239566Y2058619D01*
X3243834Y2061514D01*
X3252114Y2069236D01*
X3259175Y2078126D01*
X3264865Y2087930D01*
X3269030Y2098497D01*
X3271520Y2109520D01*
X3271926Y2114499D01*
X3245256Y2114499D01*
X3241395Y2115261D01*
X3238093Y2117496D01*
X3235909Y2120798D01*
X3235096Y2124659D01*
X3235096Y2170328D01*
X3234334Y2178354D01*
X3232150Y2185619D01*
X3228594Y2192274D01*
X3223768Y2198116D01*
X3217926Y2202891D01*
X3211271Y2206498D01*
X3204006Y2208682D01*
X3196488Y2209393D01*
X3188970Y2208682D01*
X3181756Y2206498D01*
X3175101Y2202891D01*
X3169259Y2198116D01*
X3164433Y2192274D01*
X3160877Y2185619D01*
X3158693Y2178354D01*
X3157880Y2170328D01*
X3157880Y2124659D01*
X3157118Y2120798D01*
X3154934Y2117496D01*
X3151632Y2115261D01*
X3147720Y2114499D01*
X3121101Y2114499D01*
X3121456Y2109520D01*
X3123996Y2098497D01*
X3128162Y2087930D01*
X3133801Y2078126D01*
X3140862Y2069236D01*
X3149193Y2061514D01*
X3153460Y2058619D01*
X3155848Y2056333D01*
X3157372Y2053437D01*
X3157880Y2050237D01*
X3157880Y1891487D01*
X3157372Y1888236D01*
X3155848Y1885340D01*
X3153460Y1883105D01*
X3149193Y1880158D01*
X3140862Y1872488D01*
X3133801Y1863598D01*
X3128162Y1853793D01*
X3123996Y1843227D01*
X3121456Y1832152D01*
X3120593Y1820468D01*
X3120593Y1721256D01*
X3121456Y1709521D01*
X3123996Y1698498D01*
X3128162Y1687931D01*
X3133801Y1678127D01*
X3140862Y1669237D01*
X3149193Y1661515D01*
X3153460Y1658620D01*
X3155848Y1656334D01*
X3157372Y1653438D01*
X3157931Y1650238D01*
X3157931Y1503984D01*
X3158693Y1495958D01*
X3160877Y1488744D01*
X3164433Y1482039D01*
X3169564Y1475841D01*
X3328314Y1317091D01*
X3330498Y1313789D01*
X3331260Y1309878D01*
X3331260Y598220D01*
X3330498Y594360D01*
X3328314Y591058D01*
X3325012Y588822D01*
X3321151Y588060D01*
X3318662Y588060D01*
X3314801Y588822D01*
X3311499Y591007D01*
X3309264Y594309D01*
X3308502Y598220D01*
X3308502Y1229614D01*
X3307689Y1237640D01*
X3305505Y1244854D01*
X3301949Y1251508D01*
X3296818Y1257757D01*
X3038094Y1516481D01*
X3035909Y1519783D01*
X3035147Y1523695D01*
X3035147Y1650238D01*
X3035655Y1653489D01*
X3037179Y1656384D01*
X3039567Y1658620D01*
X3043834Y1661515D01*
X3052114Y1669237D01*
X3059176Y1678127D01*
X3064865Y1687931D01*
X3069031Y1698498D01*
X3071520Y1709521D01*
X3072434Y1721256D01*
X3072434Y1820468D01*
X3071520Y1832152D01*
X3069031Y1843227D01*
X3064865Y1853793D01*
X3059176Y1863598D01*
X3052114Y1872488D01*
X3043834Y1880158D01*
X3039567Y1883105D01*
X3037179Y1885340D01*
X3035655Y1888236D01*
X3035096Y1891487D01*
X3035096Y2050237D01*
X3035655Y2053437D01*
X3037179Y2056384D01*
X3039567Y2058619D01*
X3043834Y2061514D01*
X3052114Y2069236D01*
X3059176Y2078126D01*
X3064865Y2087930D01*
X3069031Y2098497D01*
X3071520Y2109520D01*
X3071926Y2114499D01*
X3045256Y2114499D01*
X3041396Y2115261D01*
X3038094Y2117496D01*
X3035909Y2120798D01*
X3035096Y2124659D01*
X3035096Y2170328D01*
X3034334Y2178354D01*
X3032150Y2185619D01*
X3028594Y2192274D01*
X3023768Y2198116D01*
X3017926Y2202891D01*
X3011271Y2206498D01*
X3004007Y2208682D01*
X2996488Y2209393D01*
X2988970Y2208682D01*
X2981756Y2206498D01*
X2975102Y2202891D01*
X2969260Y2198116D01*
X2964434Y2192274D01*
X2960878Y2185619D01*
X2958693Y2178354D01*
X2957880Y2170328D01*
X2957880Y2124659D01*
X2957118Y2120798D01*
X2954934Y2117496D01*
X2951632Y2115261D01*
X2947720Y2114499D01*
X2921101Y2114499D01*
X2921457Y2109520D01*
X2923997Y2098497D01*
X2928162Y2087930D01*
X2933801Y2078126D01*
X2940862Y2069236D01*
X2949194Y2061514D01*
X2953461Y2058619D01*
X2955848Y2056333D01*
X2957372Y2053437D01*
X2957880Y2050237D01*
X2957880Y1891487D01*
X2957372Y1888236D01*
X2955848Y1885340D01*
X2953461Y1883105D01*
X2949194Y1880158D01*
X2940862Y1872488D01*
X2933801Y1863598D01*
X2928162Y1853793D01*
X2923997Y1843227D01*
X2921457Y1832152D01*
X2920593Y1820468D01*
X2920593Y1721256D01*
X2921457Y1709521D01*
X2923997Y1698498D01*
X2928162Y1687931D01*
X2933801Y1678127D01*
X2940862Y1669237D01*
X2949194Y1661515D01*
X2953461Y1658620D01*
X2955848Y1656334D01*
X2957372Y1653438D01*
X2957931Y1650238D01*
X2957931Y1503984D01*
X2958693Y1495958D01*
X2960878Y1488694D01*
X2964434Y1482039D01*
X2969564Y1475841D01*
X3228289Y1217066D01*
X3230524Y1213764D01*
X3231286Y1209903D01*
X3231286Y598220D01*
X3230422Y594156D01*
X3228035Y590753D01*
X3223260Y588213D01*
X3219907Y587603D01*
X3216554Y588213D01*
X3210661Y590245D01*
X3204311Y590956D01*
X3193745Y590956D01*
X3193745Y510133D01*
X3192983Y506272D01*
X3190748Y502970D01*
X3187446Y500786D01*
X3183585Y499973D01*
X3156204Y499973D01*
X3152292Y500786D01*
X3148990Y502970D01*
X3146806Y506272D01*
X3146044Y510133D01*
X3146044Y590956D01*
X3135477Y590956D01*
X3129127Y590245D01*
X3123234Y588213D01*
X3119882Y587603D01*
X3115310Y588619D01*
X3111754Y590753D01*
X3109366Y594156D01*
X3108502Y598220D01*
X3108502Y1229614D01*
X3107690Y1237640D01*
X3105505Y1244854D01*
X3101949Y1251508D01*
X3096818Y1257757D01*
X2838094Y1516481D01*
X2835910Y1519783D01*
X2835097Y1523695D01*
X2835097Y1650238D01*
X2835656Y1653489D01*
X2837180Y1656384D01*
X2839567Y1658620D01*
X2843834Y1661515D01*
X2852115Y1669237D01*
X2859176Y1678127D01*
X2864866Y1687931D01*
X2869031Y1698498D01*
X2871520Y1709521D01*
X2872435Y1721256D01*
X2872435Y1820468D01*
X2871520Y1832152D01*
X2869031Y1843227D01*
X2864866Y1853793D01*
X2859176Y1863598D01*
X2852115Y1872488D01*
X2843834Y1880158D01*
X2839567Y1883105D01*
X2837180Y1885340D01*
X2835656Y1888236D01*
X2835097Y1891487D01*
X2835097Y2050237D01*
X2835656Y2053437D01*
X2837180Y2056384D01*
X2839567Y2058619D01*
X2843834Y2061514D01*
X2852115Y2069236D01*
X2859176Y2078126D01*
X2864866Y2087930D01*
X2869031Y2098497D01*
X2871520Y2109520D01*
X2871927Y2114499D01*
X2845257Y2114499D01*
X2841396Y2115261D01*
X2838094Y2117496D01*
X2835910Y2120798D01*
X2835097Y2124659D01*
X2835097Y2170328D01*
X2834335Y2178354D01*
X2832150Y2185619D01*
X2828544Y2192274D01*
X2823768Y2198116D01*
X2817926Y2202891D01*
X2811272Y2206498D01*
X2804007Y2208682D01*
X2796489Y2209393D01*
X2788970Y2208682D01*
X2781757Y2206498D01*
X2775102Y2202891D01*
X2769260Y2198116D01*
X2764434Y2192274D01*
X2760878Y2185619D01*
X2758694Y2178354D01*
X2757881Y2170328D01*
X2757881Y2124659D01*
X2757119Y2120798D01*
X2754934Y2117496D01*
X2751632Y2115261D01*
X2747721Y2114499D01*
X2721102Y2114499D01*
X2721457Y2109520D01*
X2723997Y2098497D01*
X2728163Y2087930D01*
X2733802Y2078126D01*
X2740863Y2069236D01*
X2749194Y2061514D01*
X2753461Y2058619D01*
X2755849Y2056384D01*
X2757373Y2053437D01*
X2757881Y2050237D01*
X2757881Y1891487D01*
X2757373Y1888236D01*
X2755849Y1885340D01*
X2753461Y1883105D01*
X2749194Y1880158D01*
X2740863Y1872488D01*
X2733802Y1863598D01*
X2728163Y1853793D01*
X2723997Y1843227D01*
X2721457Y1832152D01*
X2720594Y1820468D01*
X2720594Y1721256D01*
X2721457Y1709521D01*
X2723997Y1698498D01*
X2728163Y1687931D01*
X2733802Y1678127D01*
X2740863Y1669237D01*
X2749194Y1661515D01*
X2753461Y1658620D01*
X2755849Y1656334D01*
X2757373Y1653438D01*
X2757881Y1650238D01*
X2757881Y1503984D01*
X2758694Y1495958D01*
X2760878Y1488694D01*
X2764434Y1482039D01*
X2769565Y1475841D01*
X3028289Y1217066D01*
X3030524Y1213764D01*
X3031286Y1209903D01*
X3031286Y598220D01*
X3030524Y594309D01*
X3028289Y591058D01*
X3025038Y588822D01*
X3021126Y588060D01*
X3018688Y588060D01*
X3014776Y588822D01*
X3011474Y591007D01*
X3009290Y594309D01*
X3008477Y598220D01*
X3008477Y1129588D01*
X3007715Y1137615D01*
X3005531Y1144879D01*
X3001975Y1151534D01*
X2996844Y1157732D01*
X2638094Y1516481D01*
X2635910Y1519783D01*
X2635148Y1523695D01*
X2635148Y1650238D01*
X2635656Y1653489D01*
X2637180Y1656384D01*
X2639568Y1658620D01*
X2643835Y1661515D01*
X2652115Y1669237D01*
X2659176Y1678127D01*
X2664866Y1687931D01*
X2669032Y1698498D01*
X2671521Y1709521D01*
X2672435Y1721256D01*
X2672435Y1820468D01*
X2671521Y1832152D01*
X2669032Y1843227D01*
X2664866Y1853793D01*
X2659176Y1863598D01*
X2652115Y1872488D01*
X2643835Y1880158D01*
X2639568Y1883105D01*
X2637180Y1885340D01*
X2635656Y1888236D01*
X2635097Y1891487D01*
X2635097Y2050237D01*
X2635656Y2053437D01*
X2637180Y2056384D01*
X2639568Y2058619D01*
X2643835Y2061514D01*
X2652115Y2069236D01*
X2659176Y2078126D01*
X2664866Y2087930D01*
X2669032Y2098497D01*
X2671521Y2109520D01*
X2671927Y2114499D01*
X2645257Y2114499D01*
X2641396Y2115261D01*
X2638094Y2117496D01*
X2635910Y2120798D01*
X2635097Y2124659D01*
X2635097Y2170328D01*
X2634335Y2178354D01*
X2632151Y2185619D01*
X2628544Y2192274D01*
X2623769Y2198116D01*
X2617927Y2202891D01*
X2611272Y2206498D01*
X2604008Y2208682D01*
X2596489Y2209393D01*
X2588971Y2208682D01*
X2581757Y2206498D01*
X2575102Y2202891D01*
X2569260Y2198116D01*
X2564434Y2192274D01*
X2560878Y2185619D01*
X2558694Y2178354D01*
X2557881Y2170328D01*
X2557881Y2124659D01*
X2557119Y2120798D01*
X2554935Y2117496D01*
X2551633Y2115261D01*
X2547721Y2114499D01*
X2521102Y2114499D01*
X2521458Y2109520D01*
X2523998Y2098497D01*
X2528163Y2087930D01*
X2533802Y2078126D01*
X2540863Y2069236D01*
X2549194Y2061514D01*
X2553462Y2058619D01*
X2555849Y2056384D01*
X2557373Y2053437D01*
X2557881Y2050237D01*
X2557881Y1891487D01*
X2557373Y1888236D01*
X2555849Y1885340D01*
X2553462Y1883105D01*
X2549194Y1880158D01*
X2540863Y1872488D01*
X2533802Y1863598D01*
X2528163Y1853793D01*
X2523998Y1843227D01*
X2521458Y1832152D01*
X2520594Y1820468D01*
X2520594Y1721256D01*
X2521458Y1709521D01*
X2523998Y1698498D01*
X2528163Y1687931D01*
X2533802Y1678127D01*
X2540863Y1669237D01*
X2549194Y1661515D01*
X2553462Y1658620D01*
X2555849Y1656334D01*
X2557373Y1653438D01*
X2557932Y1650238D01*
X2557932Y1503984D01*
X2558694Y1495958D01*
X2560878Y1488744D01*
X2564434Y1482039D01*
X2569565Y1475841D01*
X2928315Y1117092D01*
X2930499Y1113790D01*
X2931261Y1109878D01*
X2931261Y598220D01*
X2930448Y594156D01*
X2928010Y590753D01*
X2923235Y588213D01*
X2919882Y587603D01*
X2916529Y588213D01*
X2910636Y590245D01*
X2904337Y590956D01*
X2893720Y590956D01*
X2893720Y510133D01*
X2892958Y506272D01*
X2890774Y502970D01*
X2887472Y500786D01*
X2883560Y499973D01*
X2856179Y499973D01*
X2852318Y500786D01*
X2849016Y502970D01*
X2846832Y506272D01*
X2846019Y510133D01*
X2846019Y590956D01*
X2841955Y591769D01*
X2838653Y593953D01*
X2836468Y597255D01*
X2835656Y601116D01*
X2835757Y753770D01*
X2834640Y766572D01*
X2834030Y770737D01*
X2831084Y783386D01*
X2829864Y787400D01*
X2825191Y799490D01*
X2823413Y803300D01*
X2817063Y814628D01*
X2814777Y818134D01*
X2806903Y828446D01*
X2804109Y831596D01*
X2794863Y840689D01*
X2791612Y843432D01*
X2781198Y851103D01*
X2777591Y853338D01*
X2766212Y859485D01*
X2762351Y861212D01*
X2750159Y865632D01*
X2746095Y866800D01*
X2733395Y869442D01*
X2729230Y870051D01*
X2716276Y870864D01*
X2712059Y870864D01*
X2699156Y869848D01*
X2694990Y869238D01*
X2682341Y866394D01*
X2678277Y865225D01*
X2666187Y860602D01*
X2662326Y858824D01*
X2650998Y852576D01*
X2647442Y850290D01*
X2637078Y842518D01*
X2633929Y839724D01*
X2624785Y830529D01*
X2621991Y827328D01*
X2614269Y816914D01*
X2611983Y813409D01*
X2605786Y801979D01*
X2604058Y798169D01*
X2599537Y786028D01*
X2598369Y781964D01*
X2595575Y769315D01*
X2595016Y765098D01*
X2593848Y749757D01*
X2593848Y601116D01*
X2593086Y597255D01*
X2590901Y593953D01*
X2587599Y591718D01*
X2583688Y590956D01*
X2525471Y590956D01*
X2519121Y590245D01*
X2513228Y588213D01*
X2509875Y587603D01*
X2506522Y588213D01*
X2500630Y590245D01*
X2494330Y590956D01*
X2425446Y590956D01*
X2419146Y590245D01*
X2413254Y588213D01*
X2409901Y587603D01*
X2406548Y588213D01*
X2400655Y590245D01*
X2394305Y590956D01*
X2325471Y590956D01*
X2319121Y590245D01*
X2313228Y588213D01*
X2309876Y587603D01*
X2305304Y588619D01*
X2301748Y590753D01*
X2299360Y594156D01*
X2298496Y598220D01*
X2298496Y1139698D01*
X2299258Y1143609D01*
X2301494Y1146860D01*
X2423464Y1268882D01*
X2428595Y1275080D01*
X2432151Y1281785D01*
X2434336Y1288999D01*
X2435148Y1297025D01*
X2435148Y1650238D01*
X2435656Y1653489D01*
X2437180Y1656384D01*
X2439568Y1658620D01*
X2443835Y1661515D01*
X2452116Y1669237D01*
X2459177Y1678127D01*
X2464866Y1687931D01*
X2469032Y1698498D01*
X2471521Y1709521D01*
X2472436Y1721256D01*
X2472436Y1820468D01*
X2471521Y1832152D01*
X2469032Y1843227D01*
X2464866Y1853793D01*
X2459177Y1863598D01*
X2452116Y1872488D01*
X2443835Y1880158D01*
X2439568Y1883105D01*
X2437180Y1885340D01*
X2435656Y1888236D01*
X2435098Y1891487D01*
X2435098Y2050237D01*
X2435656Y2053437D01*
X2437180Y2056384D01*
X2439568Y2058619D01*
X2443835Y2061514D01*
X2452116Y2069236D01*
X2459177Y2078126D01*
X2464866Y2087930D01*
X2469032Y2098497D01*
X2471521Y2109520D01*
X2471928Y2114499D01*
X2445258Y2114499D01*
X2441397Y2115261D01*
X2438095Y2117496D01*
X2435910Y2120798D01*
X2435098Y2124659D01*
X2435098Y2170328D01*
X2434336Y2178354D01*
X2432151Y2185619D01*
X2428544Y2192274D01*
X2423769Y2198116D01*
X2417927Y2202891D01*
X2411272Y2206498D01*
X2404008Y2208682D01*
X2396490Y2209393D01*
X2388971Y2208682D01*
X2381758Y2206498D01*
X2375103Y2202891D01*
X2369261Y2198116D01*
X2364435Y2192274D01*
X2360879Y2185619D01*
X2358694Y2178354D01*
X2357882Y2170328D01*
X2357882Y2124659D01*
X2357120Y2120798D01*
X2354935Y2117496D01*
X2351633Y2115261D01*
X2347722Y2114499D01*
X2321102Y2114499D01*
X2321458Y2109520D01*
X2323998Y2098497D01*
X2328164Y2087930D01*
X2333802Y2078126D01*
X2340864Y2069236D01*
X2349195Y2061514D01*
X2353462Y2058619D01*
X2355850Y2056384D01*
X2357374Y2053437D01*
X2357882Y2050237D01*
X2357882Y1891487D01*
X2357374Y1888236D01*
X2355850Y1885340D01*
X2353462Y1883105D01*
X2349195Y1880158D01*
X2340864Y1872488D01*
X2333802Y1863598D01*
X2328164Y1853793D01*
X2323998Y1843227D01*
X2321458Y1832152D01*
X2320594Y1820468D01*
X2320594Y1721256D01*
X2321458Y1709521D01*
X2323998Y1698498D01*
X2328164Y1687931D01*
X2333802Y1678127D01*
X2340864Y1669237D01*
X2349195Y1661515D01*
X2353462Y1658620D01*
X2355850Y1656334D01*
X2357374Y1653438D01*
X2357932Y1650238D01*
X2357932Y1316736D01*
X2357120Y1312824D01*
X2354935Y1309522D01*
X2232964Y1187551D01*
X2227834Y1181303D01*
X2224278Y1174648D01*
X2222093Y1167434D01*
X2221280Y1159408D01*
X2221280Y598220D01*
X2220518Y594309D01*
X2218334Y591058D01*
X2215032Y588822D01*
X2211171Y588060D01*
X2208682Y588060D01*
X2204770Y588822D01*
X2201468Y591007D01*
X2199284Y594309D01*
X2198522Y598220D01*
X2198522Y1189685D01*
X2199284Y1193596D01*
X2201468Y1196898D01*
X2223465Y1218844D01*
X2228596Y1225092D01*
X2232152Y1231747D01*
X2234336Y1239012D01*
X2235149Y1247038D01*
X2235149Y1650238D01*
X2235657Y1653489D01*
X2237181Y1656384D01*
X2239568Y1658620D01*
X2243836Y1661515D01*
X2252116Y1669237D01*
X2259177Y1678127D01*
X2264867Y1687931D01*
X2269032Y1698498D01*
X2271522Y1709521D01*
X2272436Y1721256D01*
X2272436Y1820468D01*
X2271522Y1832152D01*
X2269032Y1843227D01*
X2264867Y1853793D01*
X2259177Y1863598D01*
X2252116Y1872488D01*
X2243836Y1880158D01*
X2239568Y1883105D01*
X2237181Y1885340D01*
X2235657Y1888236D01*
X2235098Y1891487D01*
X2235098Y2050237D01*
X2235657Y2053437D01*
X2237181Y2056384D01*
X2239568Y2058619D01*
X2243836Y2061514D01*
X2252116Y2069236D01*
X2259177Y2078126D01*
X2264867Y2087930D01*
X2269032Y2098497D01*
X2271522Y2109520D01*
X2271928Y2114499D01*
X2245258Y2114499D01*
X2241397Y2115261D01*
X2238095Y2117496D01*
X2235911Y2120798D01*
X2235098Y2124659D01*
X2235098Y2170328D01*
X2234336Y2178354D01*
X2232152Y2185619D01*
X2228545Y2192274D01*
X2223770Y2198116D01*
X2217928Y2202891D01*
X2211273Y2206498D01*
X2204008Y2208682D01*
X2196490Y2209393D01*
X2188972Y2208682D01*
X2181758Y2206498D01*
X2175103Y2202891D01*
X2169261Y2198116D01*
X2164435Y2192274D01*
X2160879Y2185619D01*
X2158695Y2178354D01*
X2157882Y2170328D01*
X2157882Y2124659D01*
X2157120Y2120798D01*
X2154936Y2117496D01*
X2151634Y2115261D01*
X2147722Y2114499D01*
X2121103Y2114499D01*
X2121458Y2109520D01*
X2123998Y2098497D01*
X2128164Y2087930D01*
X2133803Y2078126D01*
X2140864Y2069236D01*
X2149195Y2061514D01*
X2153462Y2058619D01*
X2155850Y2056384D01*
X2157374Y2053437D01*
X2157882Y2050237D01*
X2157882Y1891487D01*
X2157374Y1888236D01*
X2155850Y1885340D01*
X2153462Y1883105D01*
X2149195Y1880158D01*
X2140864Y1872488D01*
X2133803Y1863598D01*
X2128164Y1853793D01*
X2123998Y1843227D01*
X2121458Y1832152D01*
X2120595Y1820468D01*
X2120595Y1721256D01*
X2121458Y1709521D01*
X2123998Y1698498D01*
X2128164Y1687931D01*
X2133803Y1678127D01*
X2140864Y1669237D01*
X2149195Y1661515D01*
X2153462Y1658620D01*
X2155850Y1656334D01*
X2157374Y1653438D01*
X2157933Y1650238D01*
X2157933Y1266698D01*
X2157120Y1262837D01*
X2154936Y1259535D01*
X2132939Y1237538D01*
X2127808Y1231290D01*
X2124252Y1224635D01*
X2122068Y1217422D01*
X2121306Y1209395D01*
X2121306Y598220D01*
X2120493Y594309D01*
X2118309Y591058D01*
X2115007Y588822D01*
X2111146Y588060D01*
X2108657Y588060D01*
X2104796Y588822D01*
X2101494Y591007D01*
X2099259Y594309D01*
X2098497Y598220D01*
X2098497Y1189583D01*
X2097735Y1197610D01*
X2095500Y1204874D01*
X2091943Y1211529D01*
X2086864Y1217726D01*
X2038096Y1266494D01*
X2035911Y1269796D01*
X2035098Y1273657D01*
X2035098Y1650238D01*
X2035657Y1653489D01*
X2037181Y1656384D01*
X2039569Y1658620D01*
X2043836Y1661515D01*
X2052116Y1669237D01*
X2059178Y1678127D01*
X2064867Y1687931D01*
X2069033Y1698498D01*
X2071522Y1709521D01*
X2072436Y1721256D01*
X2072436Y1820468D01*
X2071522Y1832152D01*
X2069033Y1843227D01*
X2064867Y1853793D01*
X2059178Y1863598D01*
X2052116Y1872488D01*
X2043836Y1880158D01*
X2039569Y1883105D01*
X2037181Y1885340D01*
X2035657Y1888236D01*
X2035098Y1891487D01*
X2035098Y2050237D01*
X2035657Y2053437D01*
X2037181Y2056333D01*
X2039569Y2058619D01*
X2043836Y2061514D01*
X2052116Y2069236D01*
X2059178Y2078126D01*
X2064867Y2087930D01*
X2069033Y2098497D01*
X2071522Y2109520D01*
X2071928Y2114499D01*
X2045258Y2114499D01*
X2041398Y2115261D01*
X2038096Y2117496D01*
X2035911Y2120798D01*
X2035098Y2124659D01*
X2035098Y2170328D01*
X2034336Y2178354D01*
X2032152Y2185619D01*
X2028545Y2192274D01*
X2023770Y2198116D01*
X2017928Y2202891D01*
X2011273Y2206498D01*
X2004009Y2208682D01*
X1996490Y2209393D01*
X1988972Y2208682D01*
X1981758Y2206498D01*
X1975104Y2202891D01*
X1969262Y2198116D01*
X1964436Y2192274D01*
X1960880Y2185619D01*
X1958695Y2178354D01*
X1957882Y2170328D01*
X1957882Y2124659D01*
X1957120Y2120798D01*
X1954936Y2117496D01*
X1951634Y2115261D01*
X1947722Y2114499D01*
X1921103Y2114499D01*
X1921459Y2109520D01*
X1923999Y2098497D01*
X1928164Y2087930D01*
X1933803Y2078126D01*
X1940864Y2069236D01*
X1949196Y2061514D01*
X1953463Y2058619D01*
X1955850Y2056384D01*
X1957374Y2053437D01*
X1957882Y2050237D01*
X1957882Y1891487D01*
X1957374Y1888236D01*
X1955850Y1885340D01*
X1953463Y1883105D01*
X1949196Y1880158D01*
X1940864Y1872488D01*
X1933803Y1863598D01*
X1928164Y1853793D01*
X1923999Y1843227D01*
X1921459Y1832152D01*
X1920595Y1820468D01*
X1920595Y1721256D01*
X1921459Y1709521D01*
X1923999Y1698498D01*
X1928164Y1687931D01*
X1933803Y1678127D01*
X1940864Y1669237D01*
X1949196Y1661515D01*
X1953463Y1658620D01*
X1955850Y1656334D01*
X1957374Y1653438D01*
X1957882Y1650238D01*
X1957882Y1253998D01*
X1958695Y1245971D01*
X1960880Y1238707D01*
X1964436Y1232052D01*
X1969566Y1225804D01*
X2018284Y1177086D01*
X2020519Y1173784D01*
X2021281Y1169873D01*
X2021281Y598220D01*
X2020519Y594309D01*
X2018334Y591058D01*
X2015032Y588822D01*
X2011121Y588060D01*
X2008682Y588060D01*
X2004771Y588822D01*
X2001469Y591007D01*
X1999284Y594309D01*
X1998522Y598220D01*
X1998522Y1139596D01*
X1997710Y1147622D01*
X1995525Y1154836D01*
X1991969Y1161542D01*
X1986838Y1167739D01*
X1838096Y1316482D01*
X1835912Y1319784D01*
X1835150Y1323695D01*
X1835150Y1650238D01*
X1835657Y1653489D01*
X1837182Y1656384D01*
X1839569Y1658620D01*
X1843836Y1661515D01*
X1852117Y1669237D01*
X1859178Y1678127D01*
X1864868Y1687931D01*
X1869033Y1698498D01*
X1871522Y1709521D01*
X1872437Y1721256D01*
X1872437Y1820468D01*
X1871522Y1832152D01*
X1869033Y1843227D01*
X1864868Y1853793D01*
X1859178Y1863598D01*
X1852117Y1872488D01*
X1843836Y1880158D01*
X1839569Y1883105D01*
X1837182Y1885340D01*
X1835657Y1888236D01*
X1835099Y1891487D01*
X1835099Y2050237D01*
X1835657Y2053437D01*
X1837182Y2056333D01*
X1839569Y2058619D01*
X1843836Y2061514D01*
X1852117Y2069236D01*
X1859178Y2078126D01*
X1864868Y2087930D01*
X1869033Y2098497D01*
X1871522Y2109520D01*
X1871929Y2114499D01*
X1845259Y2114499D01*
X1841398Y2115261D01*
X1838096Y2117496D01*
X1835912Y2120798D01*
X1835099Y2124659D01*
X1835099Y2170328D01*
X1834337Y2178354D01*
X1832152Y2185619D01*
X1828546Y2192274D01*
X1823770Y2198116D01*
X1817928Y2202891D01*
X1811274Y2206498D01*
X1804009Y2208682D01*
X1796491Y2209393D01*
X1788972Y2208682D01*
X1781759Y2206498D01*
X1775104Y2202891D01*
X1769262Y2198116D01*
X1764436Y2192274D01*
X1760880Y2185619D01*
X1758696Y2178354D01*
X1757883Y2170328D01*
X1757883Y2124659D01*
X1757121Y2120798D01*
X1754936Y2117496D01*
X1751634Y2115261D01*
X1747723Y2114499D01*
X1721104Y2114499D01*
X1721459Y2109520D01*
X1723999Y2098497D01*
X1728165Y2087930D01*
X1733804Y2078126D01*
X1740865Y2069236D01*
X1749196Y2061514D01*
X1753463Y2058619D01*
X1755851Y2056384D01*
X1757375Y2053437D01*
X1757883Y2050237D01*
X1757883Y1891487D01*
X1757375Y1888236D01*
X1755851Y1885340D01*
X1753463Y1883105D01*
X1749196Y1880158D01*
X1740865Y1872488D01*
X1733804Y1863598D01*
X1728165Y1853793D01*
X1723999Y1843227D01*
X1721459Y1832152D01*
X1720596Y1820468D01*
X1720596Y1721256D01*
X1721459Y1709521D01*
X1723999Y1698498D01*
X1728165Y1687931D01*
X1733804Y1678127D01*
X1740865Y1669237D01*
X1749196Y1661515D01*
X1753463Y1658620D01*
X1755851Y1656334D01*
X1757375Y1653438D01*
X1757934Y1650238D01*
X1757934Y1303985D01*
X1758696Y1295958D01*
X1760880Y1288745D01*
X1764436Y1282039D01*
X1769567Y1275842D01*
X1918309Y1127099D01*
X1920493Y1123797D01*
X1921306Y1119886D01*
X1921306Y598220D01*
X1920443Y594156D01*
X1918055Y590753D01*
X1913229Y588213D01*
X1909876Y587603D01*
X1906524Y588213D01*
X1900631Y590245D01*
X1894332Y590956D01*
X1883714Y590956D01*
X1883714Y510133D01*
X1882952Y506272D01*
X1880768Y502970D01*
X1877466Y500786D01*
X1873554Y499973D01*
G37*

%LPC*%
G36*
X2500020Y7461402D02*
G01*
X2545283Y7462367D01*
X2590495Y7465314D01*
X2635554Y7470241D01*
X2680360Y7477150D01*
X2724810Y7485989D01*
X2768803Y7496759D01*
X2812288Y7509459D01*
X2855214Y7524038D01*
X2897428Y7540447D01*
X2938932Y7558684D01*
X2979572Y7578750D01*
X3019298Y7600543D01*
X3058058Y7624013D01*
X3095701Y7649209D01*
X3132277Y7675981D01*
X3167583Y7704378D01*
X3201670Y7734249D01*
X3234385Y7765592D01*
X3265728Y7798308D01*
X3295599Y7832394D01*
X3323996Y7867700D01*
X3350768Y7904276D01*
X3375964Y7941919D01*
X3399434Y7980680D01*
X3421227Y8020405D01*
X3441293Y8061045D01*
X3459530Y8102549D01*
X3475939Y8144764D01*
X3490518Y8187690D01*
X3503218Y8231174D01*
X3513988Y8275167D01*
X3522827Y8319617D01*
X3529736Y8364423D01*
X3534664Y8409482D01*
X3537610Y8454694D01*
X3538575Y8499957D01*
X3537610Y8545271D01*
X3534664Y8590483D01*
X3529736Y8635542D01*
X3522827Y8680348D01*
X3513988Y8724798D01*
X3503218Y8768791D01*
X3490518Y8812276D01*
X3475939Y8855202D01*
X3459530Y8897416D01*
X3441293Y8938920D01*
X3421227Y8979560D01*
X3399434Y9019286D01*
X3375964Y9058046D01*
X3350768Y9095689D01*
X3323996Y9132265D01*
X3295599Y9167571D01*
X3265728Y9201658D01*
X3234385Y9234373D01*
X3201670Y9265716D01*
X3167583Y9295587D01*
X3132277Y9323984D01*
X3095701Y9350756D01*
X3058058Y9375952D01*
X3019298Y9399422D01*
X2979572Y9421215D01*
X2938932Y9441281D01*
X2897428Y9459518D01*
X2855214Y9475927D01*
X2812288Y9490506D01*
X2768803Y9503206D01*
X2724810Y9513976D01*
X2680360Y9522815D01*
X2635554Y9529724D01*
X2590495Y9534652D01*
X2545283Y9537598D01*
X2500020Y9538563D01*
X2454706Y9537598D01*
X2409494Y9534652D01*
X2364435Y9529724D01*
X2319629Y9522815D01*
X2275179Y9513976D01*
X2231186Y9503206D01*
X2187702Y9490506D01*
X2144776Y9475927D01*
X2102561Y9459518D01*
X2061057Y9441281D01*
X2020417Y9421215D01*
X1980692Y9399422D01*
X1941931Y9375952D01*
X1904288Y9350756D01*
X1867712Y9323984D01*
X1832406Y9295587D01*
X1798320Y9265716D01*
X1765604Y9234373D01*
X1734261Y9201658D01*
X1704390Y9167571D01*
X1675993Y9132265D01*
X1649222Y9095689D01*
X1624025Y9058046D01*
X1600555Y9019286D01*
X1578762Y8979560D01*
X1558696Y8938920D01*
X1540459Y8897416D01*
X1524050Y8855202D01*
X1509471Y8812276D01*
X1496771Y8768791D01*
X1486001Y8724798D01*
X1477162Y8680348D01*
X1470253Y8635542D01*
X1465326Y8590483D01*
X1462379Y8545271D01*
X1461414Y8499957D01*
X1462379Y8454694D01*
X1465326Y8409482D01*
X1470253Y8364423D01*
X1477162Y8319617D01*
X1486001Y8275167D01*
X1496771Y8231174D01*
X1509471Y8187690D01*
X1524050Y8144764D01*
X1540459Y8102549D01*
X1558696Y8061045D01*
X1578762Y8020405D01*
X1600555Y7980680D01*
X1624025Y7941919D01*
X1649222Y7904276D01*
X1675993Y7867700D01*
X1704390Y7832394D01*
X1734261Y7798308D01*
X1765604Y7765592D01*
X1798320Y7734249D01*
X1832406Y7704378D01*
X1867712Y7675981D01*
X1904288Y7649209D01*
X1941931Y7624013D01*
X1980692Y7600543D01*
X2020417Y7578750D01*
X2061057Y7558684D01*
X2102561Y7540447D01*
X2144776Y7524038D01*
X2187702Y7509459D01*
X2231186Y7496759D01*
X2275179Y7485989D01*
X2319629Y7477150D01*
X2364435Y7470241D01*
X2409494Y7465314D01*
X2454706Y7462367D01*
G37*
G36*
X457555Y2334717D02*
G01*
X542442Y2334717D01*
X542442Y2401011D01*
X535889Y2397963D01*
X527964Y2392426D01*
X521157Y2385618D01*
X515620Y2377744D01*
X511556Y2369007D01*
X509828Y2362454D01*
X507796Y2358593D01*
X504291Y2355900D01*
X500024Y2354935D01*
X495706Y2355900D01*
X492201Y2358593D01*
X490169Y2362454D01*
X488442Y2369007D01*
X484378Y2377744D01*
X478840Y2385618D01*
X472033Y2392426D01*
X464108Y2397963D01*
X457555Y2401011D01*
G37*
G36*
X584555Y2334717D02*
G01*
X669442Y2334717D01*
X669442Y2401011D01*
X662889Y2397963D01*
X654964Y2392426D01*
X648157Y2385618D01*
X642620Y2377744D01*
X638556Y2369007D01*
X636828Y2362454D01*
X634796Y2358593D01*
X631291Y2355900D01*
X627024Y2354935D01*
X622706Y2355900D01*
X619201Y2358593D01*
X617169Y2362454D01*
X615442Y2369007D01*
X611378Y2377744D01*
X605840Y2385618D01*
X599033Y2392426D01*
X591108Y2397963D01*
X584555Y2401011D01*
G37*
G36*
X330555Y2334717D02*
G01*
X415442Y2334717D01*
X415442Y2401011D01*
X408889Y2397963D01*
X400964Y2392426D01*
X394157Y2385618D01*
X388620Y2377744D01*
X384556Y2369007D01*
X382828Y2362454D01*
X380796Y2358593D01*
X377291Y2355900D01*
X373024Y2354935D01*
X368706Y2355900D01*
X365201Y2358593D01*
X363169Y2362454D01*
X361442Y2369007D01*
X357378Y2377744D01*
X351840Y2385618D01*
X345033Y2392426D01*
X337108Y2397963D01*
X330555Y2401011D01*
G37*
G36*
X254203Y2334717D02*
G01*
X288442Y2334717D01*
X288442Y2401011D01*
X281889Y2397963D01*
X273964Y2392426D01*
X267157Y2385618D01*
X261620Y2377744D01*
X257556Y2369007D01*
X255066Y2359710D01*
X254203Y2349652D01*
G37*
G36*
X711555Y2334717D02*
G01*
X745794Y2334717D01*
X745794Y2349652D01*
X744931Y2359710D01*
X742442Y2369007D01*
X738378Y2377744D01*
X732840Y2385618D01*
X726033Y2392426D01*
X718108Y2397963D01*
X711555Y2401011D01*
G37*
G36*
X3227832Y2227224D02*
G01*
X3271926Y2227224D01*
X3271520Y2232152D01*
X3269030Y2243226D01*
X3264865Y2253792D01*
X3259175Y2263597D01*
X3252114Y2272487D01*
X3243834Y2280158D01*
X3234436Y2286558D01*
X3227832Y2289759D01*
G37*
G36*
X2521102Y2227224D02*
G01*
X2565146Y2227224D01*
X2565146Y2289759D01*
X2558592Y2286558D01*
X2549194Y2280158D01*
X2540863Y2272487D01*
X2533802Y2263597D01*
X2528163Y2253792D01*
X2523998Y2243226D01*
X2521458Y2232152D01*
G37*
G36*
X2427833Y2227224D02*
G01*
X2471928Y2227224D01*
X2471521Y2232152D01*
X2469032Y2243226D01*
X2464866Y2253792D01*
X2459177Y2263597D01*
X2452116Y2272487D01*
X2443835Y2280158D01*
X2434437Y2286558D01*
X2427833Y2289759D01*
G37*
G36*
X2627833Y2227224D02*
G01*
X2671927Y2227224D01*
X2671521Y2232152D01*
X2669032Y2243226D01*
X2664866Y2253792D01*
X2659176Y2263597D01*
X2652115Y2272487D01*
X2643835Y2280158D01*
X2634437Y2286558D01*
X2627833Y2289759D01*
G37*
G36*
X2227834Y2227224D02*
G01*
X2271928Y2227224D01*
X2271522Y2232152D01*
X2269032Y2243226D01*
X2264867Y2253792D01*
X2259177Y2263597D01*
X2252116Y2272487D01*
X2243836Y2280158D01*
X2234438Y2286558D01*
X2227834Y2289759D01*
G37*
G36*
X3121101Y2227224D02*
G01*
X3165144Y2227224D01*
X3165144Y2289759D01*
X3158591Y2286558D01*
X3149193Y2280158D01*
X3140862Y2272487D01*
X3133801Y2263597D01*
X3128162Y2253792D01*
X3123996Y2243226D01*
X3121456Y2232152D01*
G37*
G36*
X2321102Y2227224D02*
G01*
X2365146Y2227224D01*
X2365146Y2289759D01*
X2358593Y2286558D01*
X2349195Y2280158D01*
X2340864Y2272487D01*
X2333802Y2263597D01*
X2328164Y2253792D01*
X2323998Y2243226D01*
X2321458Y2232152D01*
G37*
G36*
X1921103Y2227224D02*
G01*
X1965147Y2227224D01*
X1965147Y2289759D01*
X1958593Y2286558D01*
X1949196Y2280158D01*
X1940864Y2272487D01*
X1933803Y2263597D01*
X1928164Y2253792D01*
X1923999Y2243226D01*
X1921459Y2232152D01*
G37*
G36*
X2721102Y2227224D02*
G01*
X2765145Y2227224D01*
X2765145Y2289759D01*
X2758592Y2286558D01*
X2749194Y2280158D01*
X2740863Y2272487D01*
X2733802Y2263597D01*
X2728163Y2253792D01*
X2723997Y2243226D01*
X2721457Y2232152D01*
G37*
G36*
X3027832Y2227224D02*
G01*
X3071926Y2227224D01*
X3071520Y2232152D01*
X3069031Y2243226D01*
X3064865Y2253792D01*
X3059176Y2263597D01*
X3052114Y2272487D01*
X3043834Y2280158D01*
X3034436Y2286558D01*
X3027832Y2289759D01*
G37*
G36*
X2027834Y2227224D02*
G01*
X2071928Y2227224D01*
X2071522Y2232152D01*
X2069033Y2243226D01*
X2064867Y2253792D01*
X2059178Y2263597D01*
X2052116Y2272487D01*
X2043836Y2280158D01*
X2034438Y2286558D01*
X2027834Y2289759D01*
G37*
G36*
X2921101Y2227224D02*
G01*
X2965145Y2227224D01*
X2965145Y2289759D01*
X2958592Y2286558D01*
X2949194Y2280158D01*
X2940862Y2272487D01*
X2933801Y2263597D01*
X2928162Y2253792D01*
X2923997Y2243226D01*
X2921457Y2232152D01*
G37*
G36*
X2121103Y2227224D02*
G01*
X2165146Y2227224D01*
X2165146Y2289759D01*
X2158593Y2286558D01*
X2149195Y2280158D01*
X2140864Y2272487D01*
X2133803Y2263597D01*
X2128164Y2253792D01*
X2123998Y2243226D01*
X2121458Y2232152D01*
G37*
G36*
X2827832Y2227224D02*
G01*
X2871927Y2227224D01*
X2871520Y2232152D01*
X2869031Y2243226D01*
X2864866Y2253792D01*
X2859176Y2263597D01*
X2852115Y2272487D01*
X2843834Y2280158D01*
X2834436Y2286558D01*
X2827832Y2289759D01*
G37*
G36*
X560019Y1443634D02*
G01*
X569772Y1444498D01*
X579272Y1447038D01*
X588162Y1451203D01*
X596239Y1456842D01*
X603148Y1463751D01*
X608787Y1471828D01*
X612952Y1480718D01*
X615442Y1490014D01*
X617474Y1493875D01*
X620979Y1496568D01*
X625246Y1497533D01*
X629564Y1496568D01*
X633018Y1493875D01*
X635050Y1490014D01*
X637540Y1480718D01*
X641705Y1471828D01*
X647344Y1463751D01*
X654253Y1456842D01*
X662330Y1451203D01*
X671220Y1447038D01*
X680720Y1444498D01*
X690524Y1443634D01*
X700278Y1444498D01*
X709777Y1447038D01*
X718667Y1451203D01*
X726744Y1456842D01*
X733653Y1463751D01*
X739292Y1471828D01*
X743458Y1480718D01*
X745998Y1490218D01*
X746861Y1499971D01*
X745998Y1509776D01*
X743458Y1519275D01*
X739292Y1528165D01*
X733653Y1536242D01*
X732078Y1537817D01*
X729894Y1541119D01*
X729132Y1544980D01*
X729132Y1606448D01*
X729894Y1610309D01*
X738378Y1622247D01*
X742442Y1630984D01*
X744931Y1640281D01*
X745794Y1650339D01*
X745794Y1795170D01*
X744931Y1805178D01*
X742442Y1814474D01*
X738378Y1823212D01*
X729996Y1835048D01*
X729234Y1838909D01*
X729996Y1842820D01*
X732231Y1846122D01*
X735533Y1848307D01*
X739394Y1849069D01*
X896416Y1849069D01*
X900328Y1848307D01*
X903630Y1846122D01*
X905814Y1842820D01*
X906576Y1838909D01*
X906576Y1830070D01*
X907287Y1823720D01*
X909218Y1818284D01*
X912317Y1813356D01*
X916381Y1809292D01*
X921308Y1806193D01*
X926744Y1804314D01*
X933043Y1803603D01*
X1066952Y1803603D01*
X1073251Y1804314D01*
X1078687Y1806193D01*
X1083614Y1809292D01*
X1087678Y1813356D01*
X1090777Y1818284D01*
X1092708Y1823720D01*
X1093419Y1830070D01*
X1093419Y1838909D01*
X1094181Y1842820D01*
X1096365Y1846122D01*
X1099667Y1848307D01*
X1103579Y1849069D01*
X1124102Y1849069D01*
X1128369Y1848154D01*
X1130706Y1847037D01*
X1140206Y1844497D01*
X1150010Y1843633D01*
X1159764Y1844497D01*
X1169263Y1847037D01*
X1171600Y1848154D01*
X1175918Y1849069D01*
X1213713Y1849069D01*
X1217980Y1848154D01*
X1220317Y1847037D01*
X1229817Y1844497D01*
X1239621Y1843633D01*
X1249375Y1844497D01*
X1258874Y1847037D01*
X1261211Y1848154D01*
X1265529Y1849069D01*
X1299565Y1849069D01*
X1308811Y1849882D01*
X1317396Y1852218D01*
X1325422Y1855927D01*
X1332687Y1861007D01*
X1338986Y1867306D01*
X1344066Y1874570D01*
X1347774Y1882597D01*
X1350111Y1891182D01*
X1350873Y1899970D01*
X1350111Y1908810D01*
X1347774Y1917395D01*
X1344066Y1925421D01*
X1338986Y1932686D01*
X1332687Y1938985D01*
X1325422Y1944065D01*
X1317396Y1947773D01*
X1308811Y1950110D01*
X1299565Y1950923D01*
X1265529Y1950923D01*
X1261211Y1951837D01*
X1258874Y1952955D01*
X1249375Y1955495D01*
X1239621Y1956358D01*
X1229817Y1955495D01*
X1220317Y1952955D01*
X1217980Y1951837D01*
X1213713Y1950923D01*
X1175918Y1950923D01*
X1171600Y1951837D01*
X1169263Y1952955D01*
X1159764Y1955495D01*
X1150010Y1956358D01*
X1140206Y1955495D01*
X1130706Y1952955D01*
X1128369Y1951837D01*
X1124102Y1950923D01*
X1103579Y1950923D01*
X1099667Y1951685D01*
X1096365Y1953869D01*
X1094181Y1957171D01*
X1093419Y1961083D01*
X1093419Y1969922D01*
X1092708Y1976221D01*
X1090777Y1981707D01*
X1087678Y1986584D01*
X1083614Y1990699D01*
X1079550Y1994204D01*
X1077976Y1997964D01*
X1077976Y2002028D01*
X1079550Y2005787D01*
X1083614Y2009292D01*
X1087678Y2013407D01*
X1090777Y2018284D01*
X1092708Y2023770D01*
X1093419Y2030069D01*
X1093419Y2058416D01*
X1040079Y2058416D01*
X1040079Y2006549D01*
X1039317Y2002688D01*
X1037132Y1999386D01*
X1033830Y1997151D01*
X1029919Y1996389D01*
X970076Y1996389D01*
X966165Y1997151D01*
X962863Y1999386D01*
X960678Y2002688D01*
X959916Y2006549D01*
X959916Y2058416D01*
X906576Y2058416D01*
X906576Y2030069D01*
X907287Y2023770D01*
X909218Y2018284D01*
X912317Y2013407D01*
X916381Y2009292D01*
X920445Y2005787D01*
X922019Y2002028D01*
X922019Y1997964D01*
X920445Y1994204D01*
X916381Y1990699D01*
X912317Y1986584D01*
X909218Y1981707D01*
X907287Y1976221D01*
X906576Y1969922D01*
X906576Y1961083D01*
X905814Y1957171D01*
X903630Y1953869D01*
X900328Y1951685D01*
X896416Y1950923D01*
X400202Y1950923D01*
X395579Y1950720D01*
X391160Y1950110D01*
X386842Y1949145D01*
X382574Y1947824D01*
X378510Y1946148D01*
X374548Y1944065D01*
X370789Y1941677D01*
X367284Y1938985D01*
X363829Y1935835D01*
X273659Y1845665D01*
X270510Y1842211D01*
X267817Y1838706D01*
X265430Y1834946D01*
X263347Y1830984D01*
X261772Y1827123D01*
X259334Y1818589D01*
X257606Y1814575D01*
X255066Y1805178D01*
X254203Y1795170D01*
X254203Y1650339D01*
X255066Y1640281D01*
X257556Y1630984D01*
X261620Y1622247D01*
X267157Y1614373D01*
X273964Y1607566D01*
X281889Y1602028D01*
X290576Y1597964D01*
X299923Y1595475D01*
X309524Y1594612D01*
X319074Y1595475D01*
X328422Y1597964D01*
X337108Y1602028D01*
X345033Y1607566D01*
X351840Y1614373D01*
X357378Y1622247D01*
X361442Y1630984D01*
X363169Y1637538D01*
X365201Y1641398D01*
X368706Y1644091D01*
X373024Y1645056D01*
X377291Y1644091D01*
X380796Y1641398D01*
X382828Y1637538D01*
X384556Y1630984D01*
X388620Y1622247D01*
X394157Y1614373D01*
X400964Y1607566D01*
X408889Y1602028D01*
X415442Y1598980D01*
X415442Y1665274D01*
X374954Y1665274D01*
X371094Y1666036D01*
X367792Y1668221D01*
X365556Y1671523D01*
X364794Y1675434D01*
X364794Y1770075D01*
X365556Y1773936D01*
X367792Y1777238D01*
X371094Y1779422D01*
X374954Y1780235D01*
X415442Y1780235D01*
X415442Y1838909D01*
X416204Y1842820D01*
X418439Y1846122D01*
X421741Y1848307D01*
X425602Y1849069D01*
X447395Y1849069D01*
X451256Y1848307D01*
X454558Y1846122D01*
X456793Y1842820D01*
X457555Y1838909D01*
X457555Y1780235D01*
X498043Y1780235D01*
X501904Y1779422D01*
X505206Y1777238D01*
X507441Y1773936D01*
X508203Y1770075D01*
X508203Y1675434D01*
X507441Y1671523D01*
X505206Y1668221D01*
X501904Y1666036D01*
X498043Y1665274D01*
X457555Y1665274D01*
X457555Y1598980D01*
X464108Y1602028D01*
X472033Y1607566D01*
X478840Y1614373D01*
X484378Y1622247D01*
X488442Y1630984D01*
X490169Y1637538D01*
X492201Y1641398D01*
X495706Y1644091D01*
X500024Y1645056D01*
X504291Y1644091D01*
X507796Y1641398D01*
X509828Y1637538D01*
X511556Y1630984D01*
X515620Y1622247D01*
X524256Y1610207D01*
X525018Y1606296D01*
X525018Y1548587D01*
X524256Y1544726D01*
X522020Y1541424D01*
X516839Y1536242D01*
X511200Y1528165D01*
X507034Y1519275D01*
X504494Y1509776D01*
X503631Y1499971D01*
X504494Y1490218D01*
X507034Y1480718D01*
X511200Y1471828D01*
X516839Y1463751D01*
X523798Y1456842D01*
X531825Y1451203D01*
X540715Y1447038D01*
X550214Y1444498D01*
G37*
G36*
X1721104Y2227224D02*
G01*
X1765147Y2227224D01*
X1765147Y2289759D01*
X1758594Y2286558D01*
X1749196Y2280158D01*
X1740865Y2272487D01*
X1733804Y2263597D01*
X1728165Y2253792D01*
X1723999Y2243226D01*
X1721459Y2232152D01*
G37*
G36*
X1827834Y2227224D02*
G01*
X1871929Y2227224D01*
X1871522Y2232152D01*
X1869033Y2243226D01*
X1864868Y2253792D01*
X1859178Y2263597D01*
X1852117Y2272487D01*
X1843836Y2280158D01*
X1834438Y2286558D01*
X1827834Y2289759D01*
G37*
G36*
X457555Y2153462D02*
G01*
X464108Y2156510D01*
X472033Y2162048D01*
X478840Y2168855D01*
X484378Y2176780D01*
X488442Y2185517D01*
X490169Y2192020D01*
X492201Y2195931D01*
X495706Y2198624D01*
X500024Y2199538D01*
X504291Y2198624D01*
X507796Y2195931D01*
X509828Y2192020D01*
X511556Y2185517D01*
X515620Y2176780D01*
X521157Y2168855D01*
X527964Y2162048D01*
X535889Y2156510D01*
X542442Y2153462D01*
X542442Y2219756D01*
X457555Y2219756D01*
G37*
G36*
X330555Y2153462D02*
G01*
X337108Y2156510D01*
X345033Y2162048D01*
X351840Y2168855D01*
X357378Y2176780D01*
X361442Y2185517D01*
X363169Y2192020D01*
X365201Y2195931D01*
X368706Y2198624D01*
X373024Y2199538D01*
X377291Y2198624D01*
X380796Y2195931D01*
X382828Y2192020D01*
X384556Y2185517D01*
X388620Y2176780D01*
X394157Y2168855D01*
X400964Y2162048D01*
X408889Y2156510D01*
X415442Y2153462D01*
X415442Y2219756D01*
X330555Y2219756D01*
G37*
G36*
X584555Y2153462D02*
G01*
X591108Y2156510D01*
X599033Y2162048D01*
X605840Y2168855D01*
X611378Y2176780D01*
X615442Y2185517D01*
X617169Y2192020D01*
X619201Y2195931D01*
X622706Y2198624D01*
X627024Y2199538D01*
X631291Y2198624D01*
X634796Y2195931D01*
X636828Y2192020D01*
X638556Y2185517D01*
X642620Y2176780D01*
X648157Y2168855D01*
X654964Y2162048D01*
X662889Y2156510D01*
X669442Y2153462D01*
X669442Y2219756D01*
X584555Y2219756D01*
G37*
G36*
X711555Y2153462D02*
G01*
X718108Y2156510D01*
X726033Y2162048D01*
X732840Y2168855D01*
X738378Y2176780D01*
X742442Y2185517D01*
X744931Y2194814D01*
X745794Y2204821D01*
X745794Y2219756D01*
X711555Y2219756D01*
G37*
G36*
X288442Y2153462D02*
G01*
X288442Y2219756D01*
X254203Y2219756D01*
X254203Y2204821D01*
X255066Y2194814D01*
X257556Y2185517D01*
X261620Y2176780D01*
X267157Y2168855D01*
X273964Y2162048D01*
X281889Y2156510D01*
G37*
G36*
X906576Y2141575D02*
G01*
X959916Y2141575D01*
X959916Y2196388D01*
X933043Y2196388D01*
X926744Y2195677D01*
X921308Y2193798D01*
X916381Y2190699D01*
X912317Y2186635D01*
X909218Y2181707D01*
X907287Y2176272D01*
X906576Y2169922D01*
G37*
G36*
X3369970Y1973630D02*
G01*
X3379774Y1974494D01*
X3389274Y1977034D01*
X3398164Y1981200D01*
X3406190Y1986838D01*
X3413150Y1993798D01*
X3418789Y2001824D01*
X3422954Y2010714D01*
X3425494Y2020214D01*
X3426358Y2030018D01*
X3425494Y2039772D01*
X3422954Y2049272D01*
X3418789Y2058162D01*
X3413150Y2066239D01*
X3411575Y2067814D01*
X3409391Y2071116D01*
X3408578Y2074976D01*
X3408578Y2764993D01*
X3409391Y2768904D01*
X3411575Y2772206D01*
X3413150Y2773781D01*
X3418789Y2781808D01*
X3422954Y2790748D01*
X3425494Y2800197D01*
X3426358Y2810002D01*
X3425494Y2819806D01*
X3422954Y2829255D01*
X3418789Y2838196D01*
X3413150Y2846222D01*
X3406241Y2853182D01*
X3398164Y2858820D01*
X3389274Y2862935D01*
X3379774Y2865475D01*
X3369970Y2866339D01*
X3360216Y2865475D01*
X3350717Y2862935D01*
X3341827Y2858820D01*
X3333750Y2853182D01*
X3326841Y2846222D01*
X3321202Y2838196D01*
X3317036Y2829255D01*
X3314496Y2819806D01*
X3313633Y2810002D01*
X3314496Y2800197D01*
X3317036Y2790748D01*
X3321202Y2781808D01*
X3326841Y2773781D01*
X3328415Y2772206D01*
X3330600Y2768904D01*
X3331362Y2764993D01*
X3331362Y2074976D01*
X3330600Y2071116D01*
X3328415Y2067814D01*
X3326841Y2066239D01*
X3321202Y2058162D01*
X3317036Y2049272D01*
X3314496Y2039772D01*
X3313633Y2030018D01*
X3314496Y2020214D01*
X3317036Y2010714D01*
X3321202Y2001824D01*
X3326841Y1993798D01*
X3333750Y1986838D01*
X3341827Y1981200D01*
X3350717Y1977034D01*
X3360216Y1974494D01*
G37*
G36*
X1040079Y2141575D02*
G01*
X1093419Y2141575D01*
X1093419Y2169922D01*
X1092708Y2176272D01*
X1090777Y2181707D01*
X1087678Y2186635D01*
X1083614Y2190699D01*
X1078687Y2193798D01*
X1073251Y2195677D01*
X1066952Y2196388D01*
X1040079Y2196388D01*
G37*

%LPD*%
D10*
X3196513Y1770837D02*
G01*
X3196513Y1503479D01*
X3369891Y1330101D01*
X3369891Y350062D01*
X1996516Y1770837D02*
G01*
X1996516Y1253474D01*
X2059891Y1190096D01*
X2059891Y350062D01*
D11*
X999997Y1899996D02*
G01*
X1239598Y1899996D01*
X1239598Y1899996D02*
G01*
X1299997Y1899996D01*
D10*
X3369993Y2029995D02*
G01*
X3369993Y2799994D01*
X1559890Y405053D02*
G01*
X1559890Y2799994D01*
X690498Y1722754D02*
G01*
X690498Y1499996D01*
X559993Y1499996D02*
G01*
X563623Y1503626D01*
X563623Y1722630D01*
X1796516Y1770837D02*
G01*
X1796516Y1303479D01*
X1959891Y1140104D01*
X1959891Y350062D01*
D11*
X309498Y1722754D02*
G01*
X309498Y1809495D01*
X399999Y1899996D01*
X999997Y1899996D01*
D10*
X2396515Y1770837D02*
G01*
X2396515Y1296520D01*
X2259893Y1159898D01*
X2259893Y350062D01*
X2196515Y1770837D02*
G01*
X2196515Y1246515D01*
X2159894Y1209890D01*
X2159894Y350062D01*
X2996514Y1770837D02*
G01*
X2996514Y1503471D01*
X3269889Y1230096D01*
X3269889Y350062D01*
X2596515Y1770837D02*
G01*
X2596515Y1503476D01*
X2969889Y1130101D01*
X2969889Y350062D01*
X2796514Y1770837D02*
G01*
X2796514Y1503471D01*
X3069889Y1230096D01*
X3069889Y350062D01*
X1996506Y2170851D02*
G01*
X1996506Y1770852D01*
X1796506Y2170851D02*
G01*
X1796506Y1770852D01*
X3196508Y2170851D02*
G01*
X3196508Y1770852D01*
X2996509Y2170851D02*
G01*
X2996509Y1770852D01*
X2796506Y2170851D02*
G01*
X2796506Y1770852D01*
X2596507Y2170851D02*
G01*
X2596507Y1770852D01*
X2396507Y2170851D02*
G01*
X2396507Y1770852D01*
X2196508Y2170851D02*
G01*
X2196508Y1770852D01*
D12*
G01*
X309498Y2277237D03*
G01*
X436498Y2277237D03*
G01*
X563498Y2277237D03*
G01*
X690498Y2277237D03*
G01*
X309498Y1722754D03*
G01*
X436498Y1722754D03*
G01*
X563498Y1722754D03*
G01*
X690498Y1722754D03*
D13*
G01*
X3469893Y350062D03*
G01*
X2559888Y350062D03*
G01*
X2459888Y350062D03*
G01*
X2359888Y350062D03*
G01*
X2259888Y350062D03*
G01*
X2159888Y350062D03*
G01*
X2059889Y350062D03*
G01*
X1959889Y350062D03*
G01*
X1859889Y350062D03*
G01*
X1759889Y350062D03*
G01*
X1659889Y350062D03*
G01*
X3369894Y350062D03*
G01*
X2869895Y350062D03*
G01*
X2969895Y350062D03*
G01*
X3069894Y350062D03*
G01*
X3169894Y350062D03*
G01*
X3269894Y350062D03*
D14*
G01*
X1559890Y405053D03*
D15*
G01*
X999997Y1899996D03*
D16*
G01*
X999998Y2099998D03*
D17*
G01*
X1796516Y2170849D03*
G01*
X1996516Y2170849D03*
G01*
X2196515Y2170849D03*
G01*
X2396515Y2170849D03*
G01*
X2596515Y2170849D03*
G01*
X2796514Y2170849D03*
G01*
X2996514Y2170849D03*
G01*
X3196513Y2170849D03*
G01*
X3196513Y1770849D03*
G01*
X2996514Y1770849D03*
G01*
X2796514Y1770849D03*
G01*
X2596515Y1770849D03*
G01*
X2396515Y1770849D03*
G01*
X2196515Y1770849D03*
G01*
X1996516Y1770849D03*
G01*
X1796516Y1770849D03*
D18*
G01*
X559998Y1499996D03*
G01*
X690498Y1499996D03*
G01*
X1149997Y1899996D03*
G01*
X1559890Y2799994D03*
G01*
X3369995Y2810002D03*
G01*
X3369993Y2029995D03*
G01*
X1239598Y1899996D03*
G01*
X3174994Y699998D03*
G01*
X3174994Y874996D03*
D19*
G01*
X107205Y7392522D03*
G01*
X107205Y6892523D03*
G01*
X107205Y6392524D03*
G01*
X107205Y5892525D03*
G01*
X107205Y5392526D03*
G01*
X107205Y4892527D03*
G01*
X107205Y4392528D03*
G01*
X107205Y3892529D03*
G01*
X107205Y3392530D03*
G01*
X107205Y2892531D03*
G01*
X107205Y2392532D03*
G01*
X107205Y1892533D03*
G01*
X107205Y1392534D03*
G01*
X607204Y8892519D03*
G01*
X607204Y8392520D03*
G01*
X607204Y7892521D03*
G01*
X607204Y7392522D03*
G01*
X607204Y5392526D03*
G01*
X607204Y3392530D03*
G01*
X607204Y2892531D03*
G01*
X1107203Y9392518D03*
G01*
X1107203Y8892519D03*
G01*
X1107203Y8392520D03*
G01*
X1107203Y7892521D03*
G01*
X1107203Y7392522D03*
G01*
X1107203Y5392526D03*
G01*
X1107203Y3392530D03*
G01*
X1107203Y2892531D03*
G01*
X1107203Y2392532D03*
G01*
X1607202Y9392518D03*
G01*
X1607202Y7392522D03*
G01*
X1607202Y5392526D03*
G01*
X1607202Y3392530D03*
G01*
X2107201Y7392522D03*
G01*
X2107201Y5392526D03*
G01*
X2107201Y3392530D03*
G01*
X2107201Y2892531D03*
G01*
X2107201Y2392532D03*
G01*
X2607200Y9892517D03*
G01*
X2607200Y7392522D03*
G01*
X2607200Y5392526D03*
G01*
X2607200Y3392530D03*
G01*
X2607200Y2892531D03*
G01*
X2607200Y2392532D03*
G01*
X2607200Y892535D03*
G01*
X3107199Y7392522D03*
G01*
X3107199Y5392526D03*
G01*
X3107199Y3392530D03*
G01*
X3107199Y2892531D03*
G01*
X3107199Y2392532D03*
G01*
X3607198Y9392518D03*
G01*
X3607198Y8892519D03*
G01*
X3607198Y8392520D03*
G01*
X3607198Y7892521D03*
G01*
X3607198Y7392522D03*
G01*
X3607198Y5392526D03*
G01*
X3607198Y3392530D03*
G01*
X3607198Y2892531D03*
G01*
X3607198Y2392532D03*
G01*
X3607198Y1892533D03*
G01*
X3607198Y1392534D03*
G01*
X4107197Y8892519D03*
G01*
X4107197Y8392520D03*
G01*
X4107197Y7892521D03*
G01*
X4107197Y7392522D03*
G01*
X4107197Y5392526D03*
G01*
X4107197Y3392530D03*
G01*
X4107197Y2892531D03*
G01*
X4107197Y2392532D03*
G01*
X4107197Y1892533D03*
G01*
X4107197Y1392534D03*
G01*
X4607196Y8392520D03*
G01*
X4607196Y7892521D03*
G01*
X4607196Y7392522D03*
G01*
X4607196Y6892523D03*
G01*
X4607196Y6392524D03*
G01*
X4607196Y5892525D03*
G01*
X4607196Y5392526D03*
G01*
X4607196Y4892527D03*
G01*
X4607196Y4392528D03*
G01*
X4607196Y3892529D03*
G01*
X4607196Y3392530D03*
G01*
X4607196Y2892531D03*
G01*
X4607196Y2392532D03*
G01*
X4607196Y1892533D03*
G01*
X4607196Y1392534D03*
M02*
