G04 Layer: TopLayer*
G04 EasyEDA v6.5.20, 2023-01-09 08:49:07*
G04 a67cddfb3fce44daa9051d46cbbcc19f,10*
G04 Gerber Generator version 0.2*
G04 Scale: 100 percent, Rotated: No, Reflected: No *
G04 Dimensions in millimeters *
G04 leading zeros omitted , absolute positions ,4 integer and 5 decimal *
%FSLAX45Y45*%
%MOMM*%

%ADD10C,0.5000*%
%ADD11C,0.2540*%
%ADD12R,0.7000X4.3000*%
%ADD13R,0.7000X3.2000*%
%ADD14C,0.6096*%
%ADD15C,0.6100*%
%ADD16C,0.0194*%

%LPD*%
G36*
X1846173Y499973D02*
G01*
X1842312Y500786D01*
X1839010Y502970D01*
X1836826Y506272D01*
X1836013Y510133D01*
X1836013Y590956D01*
X1825447Y590956D01*
X1819148Y590245D01*
X1813255Y588213D01*
X1809902Y587603D01*
X1806549Y588213D01*
X1800656Y590245D01*
X1794306Y590956D01*
X1725472Y590956D01*
X1719122Y590245D01*
X1713230Y588213D01*
X1709877Y587603D01*
X1706524Y588213D01*
X1700631Y590245D01*
X1694332Y590956D01*
X1625447Y590956D01*
X1619148Y590245D01*
X1613255Y588213D01*
X1609902Y587603D01*
X1606550Y588213D01*
X1600657Y590245D01*
X1594307Y590956D01*
X1535379Y590956D01*
X1531467Y591718D01*
X1528216Y593953D01*
X1525981Y597204D01*
X1525219Y601116D01*
X1524812Y992784D01*
X1525676Y1000760D01*
X1524914Y1006652D01*
X1522780Y1012190D01*
X1519377Y1017016D01*
X1514703Y1021130D01*
X1511757Y1022908D01*
X1505864Y1025093D01*
X1499362Y1025906D01*
X500532Y1025906D01*
X469900Y1026871D01*
X440283Y1029716D01*
X410870Y1034389D01*
X381812Y1040892D01*
X353212Y1049223D01*
X325170Y1059332D01*
X297840Y1071168D01*
X271322Y1084732D01*
X245719Y1099921D01*
X221081Y1116634D01*
X197561Y1134922D01*
X175260Y1154633D01*
X154178Y1175715D01*
X134518Y1198067D01*
X116281Y1221587D01*
X99568Y1246225D01*
X84429Y1271879D01*
X70916Y1298448D01*
X59080Y1325778D01*
X49022Y1353820D01*
X40741Y1382420D01*
X34290Y1411478D01*
X29616Y1440891D01*
X26822Y1470558D01*
X25908Y1500530D01*
X25908Y7499603D01*
X26924Y7570165D01*
X29870Y7640116D01*
X34848Y7709966D01*
X41757Y7779613D01*
X50647Y7849057D01*
X61518Y7918246D01*
X74320Y7987080D01*
X89103Y8055559D01*
X105765Y8123529D01*
X124409Y8191042D01*
X144881Y8257997D01*
X167284Y8324342D01*
X191566Y8390026D01*
X217678Y8454999D01*
X245617Y8519210D01*
X275336Y8582558D01*
X306882Y8645093D01*
X340156Y8706713D01*
X375158Y8767368D01*
X411886Y8826957D01*
X450291Y8885529D01*
X490321Y8942984D01*
X531926Y8999270D01*
X575157Y9054388D01*
X619912Y9108236D01*
X666191Y9160764D01*
X713892Y9212021D01*
X763066Y9261856D01*
X813612Y9310319D01*
X865530Y9357309D01*
X918768Y9402826D01*
X973226Y9446818D01*
X1028953Y9489236D01*
X1085799Y9530080D01*
X1143812Y9569246D01*
X1202944Y9606838D01*
X1263091Y9642652D01*
X1324203Y9676841D01*
X1386281Y9709200D01*
X1449222Y9739833D01*
X1513078Y9768687D01*
X1577644Y9795713D01*
X1642973Y9820910D01*
X1709013Y9844227D01*
X1775663Y9865664D01*
X1842922Y9885222D01*
X1910638Y9902850D01*
X1978914Y9918547D01*
X2047544Y9932365D01*
X2116582Y9944150D01*
X2185873Y9954056D01*
X2255469Y9961930D01*
X2325217Y9967874D01*
X2395118Y9971836D01*
X2465120Y9973818D01*
X2535174Y9973818D01*
X2605125Y9971836D01*
X2675026Y9967874D01*
X2744825Y9961930D01*
X2814370Y9954006D01*
X2883712Y9944150D01*
X2952699Y9932314D01*
X3021380Y9918496D01*
X3089605Y9902799D01*
X3157372Y9885121D01*
X3224580Y9865563D01*
X3291230Y9844125D01*
X3357270Y9820808D01*
X3422599Y9795611D01*
X3487216Y9768586D01*
X3551021Y9739731D01*
X3613962Y9709099D01*
X3676040Y9676688D01*
X3737152Y9642551D01*
X3797300Y9606686D01*
X3856380Y9569094D01*
X3914394Y9529876D01*
X3971290Y9489033D01*
X4026966Y9446615D01*
X4081475Y9402622D01*
X4134662Y9357106D01*
X4186580Y9310116D01*
X4237126Y9261652D01*
X4286250Y9211818D01*
X4334002Y9160560D01*
X4380280Y9107982D01*
X4424984Y9054134D01*
X4468215Y8999067D01*
X4509871Y8942730D01*
X4549902Y8885275D01*
X4588256Y8826703D01*
X4624984Y8767114D01*
X4659985Y8706459D01*
X4693259Y8644839D01*
X4724755Y8582304D01*
X4754524Y8518956D01*
X4782464Y8454745D01*
X4808524Y8389772D01*
X4832807Y8324088D01*
X4855210Y8257743D01*
X4875682Y8190788D01*
X4894275Y8123275D01*
X4910937Y8055254D01*
X4925720Y7986826D01*
X4938522Y7917942D01*
X4949342Y7848803D01*
X4958232Y7779359D01*
X4965192Y7709662D01*
X4970119Y7639812D01*
X4973066Y7569860D01*
X4974082Y7499756D01*
X4974082Y1500530D01*
X4973116Y1469898D01*
X4970272Y1440281D01*
X4965598Y1410868D01*
X4959096Y1381810D01*
X4950764Y1353210D01*
X4940655Y1325168D01*
X4928819Y1297838D01*
X4915255Y1271320D01*
X4900066Y1245717D01*
X4883353Y1221079D01*
X4865065Y1197559D01*
X4845354Y1175258D01*
X4824272Y1154176D01*
X4801920Y1134516D01*
X4778400Y1116279D01*
X4753762Y1099566D01*
X4728108Y1084427D01*
X4701540Y1070914D01*
X4674209Y1059078D01*
X4646168Y1049020D01*
X4617567Y1040739D01*
X4588510Y1034287D01*
X4559096Y1029614D01*
X4529429Y1026820D01*
X4499457Y1025906D01*
X3530600Y1025906D01*
X3524097Y1025093D01*
X3518560Y1023010D01*
X3513582Y1019606D01*
X3510076Y1016253D01*
X3506774Y1011428D01*
X3504692Y1005890D01*
X3503929Y999693D01*
X3503929Y601116D01*
X3503168Y597255D01*
X3500983Y593953D01*
X3497681Y591769D01*
X3493719Y590956D01*
X3493719Y510133D01*
X3492957Y506272D01*
X3490772Y502970D01*
X3487470Y500786D01*
X3483559Y499973D01*
X3456178Y499973D01*
X3452317Y500786D01*
X3449015Y502970D01*
X3446830Y506272D01*
X3446018Y510133D01*
X3446018Y590956D01*
X3435451Y590956D01*
X3429152Y590245D01*
X3423259Y588213D01*
X3419906Y587654D01*
X3415334Y588619D01*
X3411778Y590753D01*
X3409340Y594156D01*
X3408527Y598220D01*
X3408578Y1985010D01*
X3409391Y1988870D01*
X3411575Y1992172D01*
X3413150Y1993798D01*
X3418789Y2001824D01*
X3422954Y2010714D01*
X3425494Y2020214D01*
X3426358Y2030018D01*
X3425494Y2039772D01*
X3422954Y2049272D01*
X3418789Y2058162D01*
X3413150Y2066239D01*
X3406190Y2073148D01*
X3398164Y2078786D01*
X3389274Y2082952D01*
X3379774Y2085492D01*
X3369970Y2086356D01*
X3360216Y2085492D01*
X3350717Y2082952D01*
X3341827Y2078786D01*
X3333750Y2073148D01*
X3326841Y2066239D01*
X3321202Y2058162D01*
X3317036Y2049272D01*
X3314496Y2039772D01*
X3313633Y2030018D01*
X3314496Y2020214D01*
X3317036Y2010714D01*
X3321202Y2001824D01*
X3326841Y1993798D01*
X3328415Y1992172D01*
X3330600Y1988921D01*
X3331362Y1985010D01*
X3331311Y598220D01*
X3330448Y594156D01*
X3328060Y590804D01*
X3323234Y588213D01*
X3319881Y587654D01*
X3316528Y588213D01*
X3310636Y590245D01*
X3304336Y590956D01*
X3293719Y590956D01*
X3293719Y510133D01*
X3292957Y506272D01*
X3290773Y502970D01*
X3287471Y500786D01*
X3283559Y499973D01*
X3256178Y499973D01*
X3252317Y500786D01*
X3249015Y502970D01*
X3246831Y506272D01*
X3246018Y510133D01*
X3246018Y590956D01*
X3235452Y590956D01*
X3229152Y590245D01*
X3223260Y588213D01*
X3219907Y587603D01*
X3216554Y588213D01*
X3210661Y590245D01*
X3204311Y590956D01*
X3135477Y590956D01*
X3129127Y590245D01*
X3123234Y588213D01*
X3119882Y587603D01*
X3116529Y588213D01*
X3110636Y590245D01*
X3104337Y590956D01*
X3035452Y590956D01*
X3029153Y590245D01*
X3023260Y588213D01*
X3019907Y587603D01*
X3016554Y588213D01*
X3010662Y590245D01*
X3004312Y590956D01*
X2993745Y590956D01*
X2993745Y510133D01*
X2992983Y506272D01*
X2990748Y502970D01*
X2987446Y500786D01*
X2983585Y499973D01*
X2956204Y499973D01*
X2952292Y500786D01*
X2948990Y502970D01*
X2946806Y506272D01*
X2946044Y510133D01*
X2946044Y590956D01*
X2935478Y590956D01*
X2929128Y590245D01*
X2923235Y588213D01*
X2919882Y587603D01*
X2916529Y588213D01*
X2910636Y590245D01*
X2904337Y590956D01*
X2845816Y590956D01*
X2841955Y591769D01*
X2838653Y593953D01*
X2836468Y597255D01*
X2835656Y601116D01*
X2835757Y753770D01*
X2834640Y766572D01*
X2834030Y770737D01*
X2831084Y783386D01*
X2829864Y787400D01*
X2825191Y799490D01*
X2823413Y803300D01*
X2817063Y814628D01*
X2814777Y818134D01*
X2806903Y828446D01*
X2804109Y831596D01*
X2794863Y840689D01*
X2791612Y843432D01*
X2781198Y851103D01*
X2777591Y853338D01*
X2766212Y859485D01*
X2762351Y861212D01*
X2750159Y865632D01*
X2746095Y866800D01*
X2733395Y869442D01*
X2729230Y870051D01*
X2716276Y870864D01*
X2712059Y870864D01*
X2699156Y869848D01*
X2694990Y869238D01*
X2682341Y866394D01*
X2678277Y865225D01*
X2666187Y860602D01*
X2662326Y858824D01*
X2650998Y852576D01*
X2647442Y850290D01*
X2637078Y842518D01*
X2633929Y839724D01*
X2624785Y830529D01*
X2621991Y827328D01*
X2614269Y816914D01*
X2611983Y813409D01*
X2605786Y801979D01*
X2604058Y798169D01*
X2599537Y786028D01*
X2598369Y781964D01*
X2595575Y769315D01*
X2595016Y765098D01*
X2593848Y749757D01*
X2593848Y601116D01*
X2593086Y597255D01*
X2590901Y593953D01*
X2587599Y591718D01*
X2583688Y590956D01*
X2525471Y590956D01*
X2519121Y590245D01*
X2513228Y588213D01*
X2509875Y587603D01*
X2506522Y588213D01*
X2500630Y590245D01*
X2494330Y590956D01*
X2425446Y590956D01*
X2419146Y590245D01*
X2413254Y588213D01*
X2409901Y587603D01*
X2406548Y588213D01*
X2400655Y590245D01*
X2394305Y590956D01*
X2325471Y590956D01*
X2322068Y590600D01*
X2317800Y591007D01*
X2314143Y593090D01*
X2311654Y596544D01*
X2310739Y600659D01*
X2310739Y939850D01*
X2310536Y944473D01*
X2309977Y948893D01*
X2309012Y953211D01*
X2307691Y957478D01*
X2305964Y961542D01*
X2303932Y965504D01*
X2301544Y969264D01*
X2298852Y972769D01*
X2295702Y976223D01*
X1336141Y1935784D01*
X1332687Y1938934D01*
X1329182Y1941626D01*
X1325422Y1944014D01*
X1321460Y1946046D01*
X1317396Y1947773D01*
X1313129Y1949094D01*
X1308811Y1950059D01*
X1304391Y1950618D01*
X1299768Y1950821D01*
X1265682Y1950821D01*
X1261364Y1951786D01*
X1258874Y1952955D01*
X1249375Y1955495D01*
X1239621Y1956358D01*
X1229817Y1955495D01*
X1220317Y1952955D01*
X1217828Y1951786D01*
X1213510Y1950821D01*
X1176070Y1950821D01*
X1171752Y1951786D01*
X1169263Y1952955D01*
X1159764Y1955495D01*
X1150010Y1956358D01*
X1140206Y1955495D01*
X1130706Y1952955D01*
X1128217Y1951786D01*
X1124813Y1950872D01*
X1114856Y1950008D01*
X1106322Y1947722D01*
X1098245Y1943963D01*
X1090980Y1938883D01*
X1084732Y1932635D01*
X1079652Y1925370D01*
X1075893Y1917293D01*
X1073607Y1908759D01*
X1072845Y1899920D01*
X1073607Y1891080D01*
X1075893Y1882546D01*
X1079652Y1874469D01*
X1084732Y1867204D01*
X1090980Y1860956D01*
X1098245Y1855876D01*
X1106322Y1852117D01*
X1114856Y1849831D01*
X1124559Y1848967D01*
X1127404Y1848307D01*
X1130401Y1847138D01*
X1140206Y1844497D01*
X1150010Y1843633D01*
X1159764Y1844497D01*
X1169263Y1847037D01*
X1171448Y1848053D01*
X1175715Y1849018D01*
X1213866Y1849018D01*
X1218133Y1848053D01*
X1220317Y1847037D01*
X1229817Y1844497D01*
X1239621Y1843633D01*
X1249375Y1844497D01*
X1258874Y1847037D01*
X1261059Y1848053D01*
X1265326Y1849018D01*
X1274673Y1849018D01*
X1278585Y1848256D01*
X1281836Y1846021D01*
X2205939Y921918D01*
X2208174Y918667D01*
X2208936Y914755D01*
X2208936Y600710D01*
X2208022Y596544D01*
X2205532Y593090D01*
X2201875Y591007D01*
X2197608Y590600D01*
X2194306Y590956D01*
X2183739Y590956D01*
X2183739Y510133D01*
X2182977Y506272D01*
X2180742Y502970D01*
X2177491Y500786D01*
X2173579Y499973D01*
X2146198Y499973D01*
X2142286Y500786D01*
X2139035Y502970D01*
X2136800Y506272D01*
X2136038Y510133D01*
X2136038Y590956D01*
X2125472Y590956D01*
X2119122Y590245D01*
X2113229Y588213D01*
X2109876Y587603D01*
X2105355Y588619D01*
X2101799Y590753D01*
X2099411Y594106D01*
X2098548Y598170D01*
X2098548Y834491D01*
X2097989Y841197D01*
X2096007Y848563D01*
X2092655Y855319D01*
X2087727Y861720D01*
X1603197Y1376426D01*
X1596491Y1382064D01*
X1589786Y1385620D01*
X1582572Y1387805D01*
X1574546Y1388618D01*
X825296Y1388618D01*
X821740Y1389278D01*
X818591Y1391158D01*
X741324Y1458874D01*
X738733Y1462379D01*
X737819Y1466646D01*
X738784Y1470863D01*
X743458Y1480718D01*
X745998Y1490218D01*
X746861Y1499971D01*
X745998Y1509776D01*
X743458Y1519275D01*
X739292Y1528165D01*
X733653Y1536242D01*
X726744Y1543151D01*
X718667Y1548790D01*
X709777Y1552956D01*
X700278Y1555496D01*
X690524Y1556359D01*
X680720Y1555496D01*
X671220Y1552956D01*
X662330Y1548790D01*
X654253Y1543151D01*
X647344Y1536242D01*
X641705Y1528165D01*
X637540Y1519275D01*
X635050Y1509979D01*
X633018Y1506067D01*
X629564Y1503426D01*
X625246Y1502460D01*
X620979Y1503426D01*
X617474Y1506067D01*
X615442Y1509979D01*
X612952Y1519275D01*
X608787Y1528165D01*
X603148Y1536242D01*
X596239Y1543151D01*
X588162Y1548790D01*
X579272Y1552956D01*
X569772Y1555496D01*
X560019Y1556359D01*
X550214Y1555496D01*
X540715Y1552956D01*
X531825Y1548790D01*
X523798Y1543151D01*
X516839Y1536242D01*
X511200Y1528165D01*
X507034Y1519275D01*
X504494Y1509776D01*
X503631Y1499971D01*
X504494Y1490218D01*
X507034Y1480718D01*
X511200Y1471828D01*
X516839Y1463751D01*
X523798Y1456842D01*
X531825Y1451203D01*
X540715Y1447038D01*
X550214Y1444498D01*
X558241Y1443786D01*
X561644Y1442872D01*
X564540Y1440840D01*
X782320Y1223060D01*
X788568Y1217930D01*
X795223Y1214374D01*
X802487Y1212189D01*
X810514Y1211376D01*
X1429816Y1211376D01*
X1433677Y1210614D01*
X1436979Y1208430D01*
X1918309Y727100D01*
X1920493Y723798D01*
X1921306Y719886D01*
X1921306Y598220D01*
X1920443Y594156D01*
X1918055Y590753D01*
X1913229Y588213D01*
X1909876Y587603D01*
X1906524Y588213D01*
X1900631Y590245D01*
X1894332Y590956D01*
X1883714Y590956D01*
X1883714Y510133D01*
X1882952Y506272D01*
X1880768Y502970D01*
X1877466Y500786D01*
X1873554Y499973D01*
G37*

%LPC*%
G36*
X2500020Y7461402D02*
G01*
X2545283Y7462367D01*
X2590495Y7465314D01*
X2635554Y7470241D01*
X2680360Y7477150D01*
X2724810Y7485989D01*
X2768803Y7496759D01*
X2812288Y7509459D01*
X2855214Y7524038D01*
X2897428Y7540447D01*
X2938932Y7558684D01*
X2979572Y7578750D01*
X3019298Y7600543D01*
X3058058Y7624013D01*
X3095701Y7649209D01*
X3132277Y7675981D01*
X3167583Y7704378D01*
X3201670Y7734249D01*
X3234385Y7765592D01*
X3265728Y7798308D01*
X3295599Y7832394D01*
X3323996Y7867700D01*
X3350768Y7904276D01*
X3375964Y7941919D01*
X3399434Y7980680D01*
X3421227Y8020405D01*
X3441293Y8061045D01*
X3459530Y8102549D01*
X3475939Y8144764D01*
X3490518Y8187690D01*
X3503218Y8231174D01*
X3513988Y8275167D01*
X3522827Y8319617D01*
X3529736Y8364423D01*
X3534664Y8409482D01*
X3537610Y8454694D01*
X3538575Y8499957D01*
X3537610Y8545271D01*
X3534664Y8590483D01*
X3529736Y8635542D01*
X3522827Y8680348D01*
X3513988Y8724798D01*
X3503218Y8768791D01*
X3490518Y8812276D01*
X3475939Y8855202D01*
X3459530Y8897416D01*
X3441293Y8938920D01*
X3421227Y8979560D01*
X3399434Y9019286D01*
X3375964Y9058046D01*
X3350768Y9095689D01*
X3323996Y9132265D01*
X3295599Y9167571D01*
X3265728Y9201658D01*
X3234385Y9234373D01*
X3201670Y9265716D01*
X3167583Y9295587D01*
X3132277Y9323984D01*
X3095701Y9350756D01*
X3058058Y9375952D01*
X3019298Y9399422D01*
X2979572Y9421215D01*
X2938932Y9441281D01*
X2897428Y9459518D01*
X2855214Y9475927D01*
X2812288Y9490506D01*
X2768803Y9503206D01*
X2724810Y9513976D01*
X2680360Y9522815D01*
X2635554Y9529724D01*
X2590495Y9534652D01*
X2545283Y9537598D01*
X2500020Y9538563D01*
X2454706Y9537598D01*
X2409494Y9534652D01*
X2364435Y9529724D01*
X2319629Y9522815D01*
X2275179Y9513976D01*
X2231186Y9503206D01*
X2187702Y9490506D01*
X2144776Y9475927D01*
X2102561Y9459518D01*
X2061057Y9441281D01*
X2020417Y9421215D01*
X1980692Y9399422D01*
X1941931Y9375952D01*
X1904288Y9350756D01*
X1867712Y9323984D01*
X1832406Y9295587D01*
X1798320Y9265716D01*
X1765604Y9234373D01*
X1734261Y9201658D01*
X1704390Y9167571D01*
X1675993Y9132265D01*
X1649222Y9095689D01*
X1624025Y9058046D01*
X1600555Y9019286D01*
X1578762Y8979560D01*
X1558696Y8938920D01*
X1540459Y8897416D01*
X1524050Y8855202D01*
X1509471Y8812276D01*
X1496771Y8768791D01*
X1486001Y8724798D01*
X1477162Y8680348D01*
X1470253Y8635542D01*
X1465326Y8590483D01*
X1462379Y8545271D01*
X1461414Y8499957D01*
X1462379Y8454694D01*
X1465326Y8409482D01*
X1470253Y8364423D01*
X1477162Y8319617D01*
X1486001Y8275167D01*
X1496771Y8231174D01*
X1509471Y8187690D01*
X1524050Y8144764D01*
X1540459Y8102549D01*
X1558696Y8061045D01*
X1578762Y8020405D01*
X1600555Y7980680D01*
X1624025Y7941919D01*
X1649222Y7904276D01*
X1675993Y7867700D01*
X1704390Y7832394D01*
X1734261Y7798308D01*
X1765604Y7765592D01*
X1798320Y7734249D01*
X1832406Y7704378D01*
X1867712Y7675981D01*
X1904288Y7649209D01*
X1941931Y7624013D01*
X1980692Y7600543D01*
X2020417Y7578750D01*
X2061057Y7558684D01*
X2102561Y7540447D01*
X2144776Y7524038D01*
X2187702Y7509459D01*
X2231186Y7496759D01*
X2275179Y7485989D01*
X2319629Y7477150D01*
X2364435Y7470241D01*
X2409494Y7465314D01*
X2454706Y7462367D01*
G37*
G36*
X1559915Y2743657D02*
G01*
X1569669Y2744520D01*
X1579168Y2747060D01*
X1588058Y2751175D01*
X1596136Y2756814D01*
X1603044Y2763774D01*
X1605381Y2767076D01*
X1607616Y2769362D01*
X1610461Y2770886D01*
X1613662Y2771394D01*
X3325012Y2771394D01*
X3328873Y2770632D01*
X3332175Y2768396D01*
X3333750Y2766822D01*
X3341827Y2761183D01*
X3350717Y2757068D01*
X3360216Y2754528D01*
X3369970Y2753664D01*
X3379774Y2754528D01*
X3389274Y2757068D01*
X3398164Y2761183D01*
X3406241Y2766822D01*
X3413150Y2773781D01*
X3418789Y2781808D01*
X3422954Y2790748D01*
X3425494Y2800197D01*
X3426358Y2810002D01*
X3425494Y2819806D01*
X3422954Y2829255D01*
X3418789Y2838196D01*
X3413150Y2846222D01*
X3406241Y2853182D01*
X3398164Y2858820D01*
X3389274Y2862935D01*
X3379774Y2865475D01*
X3369970Y2866339D01*
X3360216Y2865475D01*
X3350717Y2862935D01*
X3341827Y2858820D01*
X3333750Y2853182D01*
X3332175Y2851607D01*
X3328873Y2849372D01*
X3325012Y2848610D01*
X1590700Y2848610D01*
X1586433Y2849575D01*
X1579168Y2852928D01*
X1569669Y2855468D01*
X1559915Y2856331D01*
X1550111Y2855468D01*
X1540611Y2852928D01*
X1531721Y2848813D01*
X1523644Y2843174D01*
X1516735Y2836214D01*
X1511096Y2828188D01*
X1506931Y2819247D01*
X1504391Y2809798D01*
X1503527Y2799994D01*
X1504391Y2790190D01*
X1506931Y2780741D01*
X1511096Y2771800D01*
X1516735Y2763774D01*
X1523644Y2756814D01*
X1531721Y2751175D01*
X1540611Y2747060D01*
X1550111Y2744520D01*
G37*

%LPD*%
D10*
X1123695Y1899920D02*
G01*
X1299971Y1899920D01*
X2259838Y940054D01*
X2259838Y350012D01*
D11*
X3369993Y2029995D02*
G01*
X3369891Y403860D01*
X1559892Y2799996D02*
G01*
X1569897Y2810002D01*
X3369995Y2810002D01*
X690626Y1499870D02*
G01*
X693928Y1449070D01*
X806957Y1350010D01*
X1575054Y1350010D01*
X2059940Y834897D01*
X2059940Y350012D01*
X1449994Y1249994D02*
G01*
X809995Y1249994D01*
X559993Y1499996D01*
X1959889Y350062D02*
G01*
X1959889Y740105D01*
X1449997Y1249997D01*
D12*
G01*
X3469893Y350062D03*
D13*
G01*
X3369894Y405079D03*
D12*
G01*
X3269894Y350062D03*
G01*
X3169894Y350062D03*
G01*
X3069894Y350062D03*
G01*
X2969895Y350062D03*
G01*
X2869895Y350062D03*
G01*
X2559888Y350062D03*
G01*
X2459888Y350062D03*
G01*
X2359888Y350062D03*
G01*
X2259888Y350062D03*
G01*
X2159888Y350062D03*
G01*
X2059889Y350062D03*
G01*
X1959889Y350062D03*
G01*
X1859889Y350062D03*
G01*
X1759889Y350062D03*
G01*
X1659889Y350062D03*
G01*
X1559890Y350062D03*
D14*
G01*
X559998Y1499996D03*
G01*
X690498Y1499996D03*
G01*
X1149997Y1899996D03*
G01*
X1559890Y2799994D03*
G01*
X3369995Y2810002D03*
G01*
X3369993Y2029995D03*
G01*
X1239598Y1899996D03*
G01*
X3174994Y699998D03*
G01*
X3174994Y874996D03*
D15*
G01*
X107205Y7392522D03*
G01*
X107205Y6892523D03*
G01*
X107205Y6392524D03*
G01*
X107205Y5892525D03*
G01*
X107205Y5392526D03*
G01*
X107205Y4892527D03*
G01*
X107205Y4392528D03*
G01*
X107205Y3892529D03*
G01*
X107205Y3392530D03*
G01*
X107205Y2892531D03*
G01*
X107205Y2392532D03*
G01*
X107205Y1892533D03*
G01*
X107205Y1392534D03*
G01*
X607204Y8892519D03*
G01*
X607204Y8392520D03*
G01*
X607204Y7892521D03*
G01*
X607204Y7392522D03*
G01*
X607204Y5392526D03*
G01*
X607204Y3392530D03*
G01*
X607204Y2892531D03*
G01*
X1107203Y9392518D03*
G01*
X1107203Y8892519D03*
G01*
X1107203Y8392520D03*
G01*
X1107203Y7892521D03*
G01*
X1107203Y7392522D03*
G01*
X1107203Y5392526D03*
G01*
X1107203Y3392530D03*
G01*
X1107203Y2892531D03*
G01*
X1107203Y2392532D03*
G01*
X1607202Y9392518D03*
G01*
X1607202Y7392522D03*
G01*
X1607202Y5392526D03*
G01*
X1607202Y3392530D03*
G01*
X2107201Y7392522D03*
G01*
X2107201Y5392526D03*
G01*
X2107201Y3392530D03*
G01*
X2107201Y2892531D03*
G01*
X2107201Y2392532D03*
G01*
X2607200Y9892517D03*
G01*
X2607200Y7392522D03*
G01*
X2607200Y5392526D03*
G01*
X2607200Y3392530D03*
G01*
X2607200Y2892531D03*
G01*
X2607200Y2392532D03*
G01*
X2607200Y892535D03*
G01*
X3107199Y7392522D03*
G01*
X3107199Y5392526D03*
G01*
X3107199Y3392530D03*
G01*
X3107199Y2892531D03*
G01*
X3107199Y2392532D03*
G01*
X3607198Y9392518D03*
G01*
X3607198Y8892519D03*
G01*
X3607198Y8392520D03*
G01*
X3607198Y7892521D03*
G01*
X3607198Y7392522D03*
G01*
X3607198Y5392526D03*
G01*
X3607198Y3392530D03*
G01*
X3607198Y2892531D03*
G01*
X3607198Y2392532D03*
G01*
X3607198Y1892533D03*
G01*
X3607198Y1392534D03*
G01*
X4107197Y8892519D03*
G01*
X4107197Y8392520D03*
G01*
X4107197Y7892521D03*
G01*
X4107197Y7392522D03*
G01*
X4107197Y5392526D03*
G01*
X4107197Y3392530D03*
G01*
X4107197Y2892531D03*
G01*
X4107197Y2392532D03*
G01*
X4107197Y1892533D03*
G01*
X4107197Y1392534D03*
G01*
X4607196Y8392520D03*
G01*
X4607196Y7892521D03*
G01*
X4607196Y7392522D03*
G01*
X4607196Y6892523D03*
G01*
X4607196Y6392524D03*
G01*
X4607196Y5892525D03*
G01*
X4607196Y5392526D03*
G01*
X4607196Y4892527D03*
G01*
X4607196Y4392528D03*
G01*
X4607196Y3892529D03*
G01*
X4607196Y3392530D03*
G01*
X4607196Y2892531D03*
G01*
X4607196Y2392532D03*
G01*
X4607196Y1892533D03*
G01*
X4607196Y1392534D03*
M02*
